<svg version="1.1" id="Layer_1" xmlns="http://www.w3.org/2000/svg" xmlns:xlink="http://www.w3.org/1999/xlink" x="0px" y="0px"
	 width="100%" viewBox="0 0 690 302" enable-background="new 0 0 690 302" xml:space="preserve">
<path fill="#000000" opacity="1.000000" stroke="none" 
	d="
M521.000000,303.000000 
	C347.333374,303.000000 174.166748,303.000000 1.000093,303.000000 
	C1.000062,202.333405 1.000062,101.666794 1.000031,1.000147 
	C230.999878,1.000098 460.999756,1.000098 690.999756,1.000049 
	C690.999817,101.666527 690.999817,202.333054 690.999878,302.999786 
	C634.500000,303.000000 578.000000,303.000000 521.000000,303.000000 
M20.248684,35.285694 
	C20.248684,35.285694 20.222319,35.441383 19.907827,35.672501 
	C19.701920,35.837875 19.532379,36.034580 19.255365,36.290359 
	C19.255365,36.290359 19.229290,36.434513 18.916920,36.664970 
	C18.718977,36.834282 18.549503,37.028435 18.179375,37.289478 
	C18.179375,37.289478 18.157684,37.521420 17.722010,37.871525 
	C17.284809,38.662502 16.847607,39.453480 16.184212,40.285633 
	C16.184212,40.285633 16.164829,40.514729 15.643306,40.931206 
	C15.091133,42.580662 14.538960,44.230118 13.255080,46.368782 
	C13.172195,65.155296 13.021315,83.941818 13.021361,102.728333 
	C13.021443,136.156494 13.112887,169.584671 13.025640,203.901123 
	C13.073627,206.598206 13.121614,209.295303 13.029752,212.661713 
	C13.075648,213.112869 13.121544,213.564041 13.023076,214.940536 
	C13.017345,225.646622 12.978707,236.352936 13.047354,247.058548 
	C13.055978,248.403412 13.630014,249.744659 13.976011,251.038055 
	C13.976011,251.038055 13.930887,251.081192 13.983835,251.901520 
	C14.044464,253.267273 14.105092,254.633026 14.239049,256.702667 
	C16.229378,259.988831 18.219706,263.274994 20.241573,266.771820 
	C20.241573,266.771820 20.452547,266.801208 20.891533,267.313385 
	C23.928408,268.587646 26.965284,269.861938 29.990953,271.039398 
	C29.990953,271.039398 29.894379,271.052490 30.270927,271.704926 
	C32.169140,272.080841 34.067352,272.456787 36.881866,272.980621 
	C40.595139,272.931976 44.308407,272.883331 48.946964,272.972321 
	C55.489635,272.704498 62.032310,272.436676 68.755539,272.855408 
	C69.452698,272.850189 70.149849,272.845001 71.667648,272.977203 
	C85.483849,272.987030 99.300087,273.020264 113.116249,273.001862 
	C143.741241,272.961060 174.366211,272.894348 205.921860,272.978394 
	C214.944687,272.930817 223.967499,272.883209 233.808395,272.981598 
	C238.532394,271.266815 243.256378,269.552032 248.654922,267.796234 
	C252.859894,263.671478 257.380859,259.720886 256.973022,252.049927 
	C256.925751,246.026505 256.878448,240.003082 256.972961,233.054459 
	C256.927460,220.377670 256.881958,207.700897 256.981476,194.221817 
	C256.932098,193.139893 256.882751,192.057953 256.974426,190.051147 
	C256.985474,143.413788 257.009125,96.776405 256.957581,50.139107 
	C256.955688,48.423336 256.218353,46.708370 255.958282,44.337315 
	C255.576431,43.562263 255.194580,42.787212 254.760406,41.324444 
	C253.437592,39.362976 252.114761,37.401508 250.749023,35.212257 
	C250.749023,35.212257 250.518997,35.183735 250.309967,34.901276 
	C250.160324,34.717789 249.985245,34.563099 249.758270,34.243279 
	C249.758270,34.243279 249.564789,34.213680 249.229401,33.816002 
	C248.831879,33.507225 248.434357,33.198448 248.034103,32.959820 
	C248.034103,32.959820 248.103622,32.949997 247.762909,32.301533 
	C244.515671,31.262789 241.268448,30.224045 237.160522,29.041988 
	C234.745789,28.702839 232.331345,28.069687 229.916290,28.067467 
	C166.684616,28.009304 103.452499,27.927233 40.221798,28.180883 
	C35.126301,28.201326 30.040365,30.606155 24.334908,31.992682 
	C23.401264,32.712994 22.467623,33.433304 21.278679,34.180492 
	C21.278679,34.180492 21.239431,34.434189 20.915642,34.660088 
	C20.710569,34.829773 20.540056,35.029018 20.248684,35.285694 
M294.024323,89.740952 
	C294.065735,90.497559 294.107178,91.254173 294.055115,92.942513 
	C294.034698,106.902817 293.984955,120.863152 293.999420,134.823425 
	C294.041687,175.539536 294.109650,216.255615 294.047150,257.881165 
	C294.078705,260.938324 294.110260,263.995483 294.049988,267.977295 
	C294.087555,273.975555 294.125122,279.973785 294.275177,286.548126 
	C294.591339,287.041595 294.907532,287.535095 295.614380,288.655029 
	C297.766602,288.478088 299.918793,288.301147 302.876160,287.898590 
	C303.237183,286.394562 303.906860,284.891663 303.912598,283.386292 
	C303.989899,263.056580 303.996338,242.726471 303.977539,222.396500 
	C303.950897,193.567368 303.888824,164.738281 303.963867,134.992218 
	C303.923706,125.360947 303.883545,115.729683 303.927124,105.152145 
	C303.927124,74.931496 303.927124,44.710838 303.927124,14.582153 
	C295.411102,13.479409 294.107819,13.980605 294.098328,18.628506 
	C294.052460,41.088692 294.116180,63.549107 294.037903,86.751122 
	C294.072052,87.497353 294.106232,88.243591 294.024323,89.740952 
M667.014526,79.317123 
	C666.355652,78.515366 665.696716,77.713608 665.021667,76.977272 
	C665.021667,76.977272 665.088440,76.967789 664.769836,76.354607 
	C660.866150,72.487297 656.962463,68.619987 652.809570,64.262238 
	C652.257446,63.784351 651.705322,63.306465 650.824463,62.301899 
	C650.227905,62.161381 649.631348,62.020859 649.022583,61.953163 
	C649.022583,61.953163 649.095764,61.962914 648.723450,61.381695 
	C644.825439,59.196732 640.927368,57.011768 636.721497,54.349045 
	C636.185120,54.188690 635.648682,54.028336 634.643555,53.329456 
	C626.730164,51.356091 618.816711,49.382725 610.007507,47.166550 
	C604.026794,47.170547 598.046143,47.174541 591.436401,47.074348 
	C590.894653,47.301815 590.352966,47.529282 589.196838,47.868023 
	C588.788635,47.946968 588.380493,48.025917 587.110474,48.034290 
	C581.724792,49.350357 576.339050,50.666424 570.192871,51.994884 
	C565.566528,54.110123 560.827148,56.011307 556.336548,58.383469 
	C545.733704,63.984447 537.263367,72.076744 530.984619,82.198029 
	C519.877563,100.102547 517.376465,119.697563 521.733276,140.004379 
	C527.500061,166.882629 544.638611,184.359985 569.815491,193.758911 
	C584.860291,199.375381 600.591553,199.869049 616.678040,197.243607 
	C639.092957,193.585327 656.337402,182.376389 669.219360,164.180756 
	C679.442444,149.740784 681.245300,133.036819 680.738037,115.452766 
	C680.550354,115.190132 680.308777,114.993927 679.979187,114.403427 
	C679.979187,114.403427 679.857544,113.957748 679.947937,113.094574 
	C679.470581,104.020851 677.095276,95.541451 672.059753,87.966713 
	C672.059753,87.966713 672.129395,87.952942 671.967773,87.260796 
	C670.327942,84.807419 668.688110,82.354042 667.050720,79.971390 
	C667.050720,79.971390 667.120544,79.959892 667.014526,79.317123 
M409.978760,247.804199 
	C410.121063,248.449692 410.047211,249.320190 410.443695,249.701050 
	C412.007690,251.203354 413.654877,253.541138 415.396027,253.654663 
	C416.875702,253.751144 419.039276,251.505157 420.004120,249.791138 
	C422.678802,245.039764 425.050598,240.094391 427.163696,235.066650 
	C427.704071,233.780884 426.841400,231.905411 426.623352,230.300873 
	C425.185577,231.140076 423.488861,231.733383 422.388031,232.892563 
	C421.424377,233.907379 421.254517,235.629501 420.515747,236.913605 
	C418.766968,239.953278 416.888458,242.918289 415.007111,245.166458 
	C413.085510,240.804794 411.378357,236.325470 409.094482,232.162582 
	C408.508820,231.095108 406.102386,231.026581 404.532440,230.499115 
	C404.423584,231.819824 403.850128,233.324875 404.288086,234.428635 
	C405.985809,238.707458 408.005402,242.858551 409.978760,247.804199 
M340.434326,49.042847 
	C339.562805,49.676697 338.691315,50.310551 337.307739,51.459370 
	C337.320831,56.607891 337.333954,61.756409 337.187408,67.646454 
	C337.183685,69.428284 337.179962,71.210121 337.071381,73.863228 
	C337.099396,75.906769 337.127411,77.950310 337.055420,80.927216 
	C337.037750,117.638527 337.035919,154.349869 336.980713,191.061111 
	C336.974396,195.256744 338.696503,197.314468 343.951416,196.889511 
	C353.173706,196.889511 362.395996,196.889511 371.967865,196.889511 
	C371.967865,181.144119 371.923798,166.343369 371.985626,151.543045 
	C372.018799,143.599518 370.618591,144.010010 379.868530,143.878067 
	C398.299225,143.615143 416.727386,143.168533 435.158264,142.925842 
	C438.714294,142.879013 440.260712,141.757721 440.064941,137.948120 
	C439.774933,132.304367 439.835297,126.631134 440.010742,120.978645 
	C440.146973,116.589249 438.762299,114.202744 433.027802,115.074516 
	C413.176361,115.145515 393.324951,115.216515 373.029053,114.644035 
	C372.674469,113.068268 372.030640,111.495682 372.013275,109.916199 
	C371.916260,101.093567 372.159729,92.263580 371.894836,83.447891 
	C371.759674,78.950348 373.576721,77.708160 377.787811,77.774254 
	C389.771820,77.962311 401.760681,77.835594 413.747650,77.836678 
	C423.736694,77.837578 433.728821,77.971001 443.711792,77.726906 
	C445.439240,77.684669 448.593872,76.070862 448.604736,75.153534 
	C448.700043,67.107086 448.231415,59.053959 447.570557,50.305576 
	C445.508209,49.887207 443.446167,49.106422 441.383423,49.104580 
	C407.955261,49.074722 374.526947,49.143700 340.434326,49.042847 
M396.010040,247.323944 
	C396.317139,246.509293 396.624207,245.694626 397.492218,244.344940 
	C398.660492,237.560944 396.680969,233.213501 391.297729,230.740616 
	C386.753235,228.653030 380.236816,230.402054 376.982544,234.582840 
	C373.781128,238.695740 373.787628,246.753967 376.995239,250.382660 
	C380.302612,254.124207 390.277954,255.746338 394.087524,252.779648 
	C395.256134,251.869614 395.390167,249.631104 396.010040,247.323944 
M337.018646,247.760696 
	C337.538422,250.323700 335.185394,254.473175 340.118164,254.675125 
	C344.550507,254.856583 349.019836,254.268219 353.466522,253.934708 
	C360.134338,253.434570 366.302460,248.211578 366.831421,242.091965 
	C367.503906,234.311752 367.147614,226.518600 357.711548,224.226730 
	C352.354767,222.925629 346.573700,223.407074 340.991302,222.985077 
	C337.910492,222.752167 336.835205,224.158188 336.950012,227.085098 
	C337.106201,231.065628 337.076355,235.053452 337.057495,239.911484 
	C337.085876,242.238449 337.114258,244.565430 337.018646,247.760696 
z"/>
<path fill="#4C4B4C" opacity="1.000000" stroke="none" 
	d="
M680.831909,115.914024 
	C681.245300,133.036819 679.442444,149.740784 669.219360,164.180756 
	C656.337402,182.376389 639.092957,193.585327 616.678040,197.243607 
	C600.591553,199.869049 584.860291,199.375381 569.815491,193.758911 
	C544.638611,184.359985 527.500061,166.882629 521.733276,140.004379 
	C517.376465,119.697563 519.877563,100.102547 530.984619,82.198029 
	C537.263367,72.076744 545.733704,63.984447 556.336548,58.383469 
	C560.827148,56.011307 565.566528,54.110123 570.898804,52.113735 
	C575.883789,51.495968 580.182617,50.853504 584.429810,49.964714 
	C585.685364,49.701965 586.795532,48.744160 587.972290,48.104866 
	C588.380493,48.025917 588.788635,47.946968 589.650879,48.099186 
	C590.742859,48.884151 591.380737,49.437954 592.479614,49.996597 
	C598.925232,49.623894 604.909912,49.246342 611.304443,48.935928 
	C617.360352,50.241982 623.001526,51.503906 628.654907,52.708027 
	C630.792786,53.163357 632.958984,53.485260 635.112305,53.867981 
	C635.648682,54.028336 636.185120,54.188690 636.945068,54.930664 
	C641.144409,57.662491 645.120056,59.812702 649.095764,61.962914 
	C649.095764,61.962914 649.022583,61.953163 649.064819,62.201027 
	C649.789124,62.575455 650.471130,62.702015 651.153198,62.828579 
	C651.705322,63.306465 652.257446,63.784351 652.963989,64.864922 
	C657.108398,69.301003 661.098450,73.134392 665.088440,76.967789 
	C665.088440,76.967789 665.021667,76.977272 665.041016,77.296112 
	C665.747070,78.396599 666.433838,79.178238 667.120544,79.959885 
	C667.120544,79.959892 667.050720,79.971390 667.052429,80.309608 
	C668.745911,83.082863 670.437622,85.517899 672.129395,87.952942 
	C672.129395,87.952942 672.059753,87.966713 672.039246,88.335632 
	C674.131531,96.730667 676.224792,104.762108 678.404724,112.769951 
	C678.538513,113.261292 679.357422,113.566124 679.857544,113.957748 
	C679.857544,113.957748 679.979187,114.403427 680.111572,114.825638 
	C680.397522,115.507370 680.593506,115.729424 680.831909,115.914024 
M644.291016,130.664703 
	C644.230408,125.774483 644.544312,120.845863 644.047607,116.000343 
	C641.122009,87.460121 616.355591,73.203651 590.794006,78.363228 
	C560.608582,84.456123 551.884399,108.919853 556.854492,133.950958 
	C562.339294,161.574127 586.470825,172.283020 611.553772,167.584702 
	C628.148865,164.476242 641.996155,148.338104 644.291016,130.664703 
z"/>
<path fill="#FFFFFF" opacity="1.000000" stroke="none" 
	d="
M433.954865,115.164833 
	C438.762299,114.202744 440.146973,116.589249 440.010742,120.978645 
	C439.835297,126.631134 439.774933,132.304367 440.064941,137.948120 
	C440.260712,141.757721 438.714294,142.879013 435.158264,142.925842 
	C416.727386,143.168533 398.299225,143.615143 379.868530,143.878067 
	C370.618591,144.010010 372.018799,143.599518 371.985626,151.543045 
	C371.923798,166.343369 371.967865,181.144119 371.967865,196.889511 
	C362.395996,196.889511 353.173706,196.889511 343.410522,196.527328 
	C341.918121,194.778641 340.966614,193.392136 340.420441,192.003265 
	C346.950500,191.481018 349.007385,189.557114 348.842346,183.639557 
	C348.690765,178.204239 347.974884,172.786942 347.613800,167.354660 
	C347.055908,158.960999 346.293518,150.566132 346.157135,142.163010 
	C345.985657,131.597290 346.688782,121.012970 346.376892,110.455521 
	C346.175110,103.626328 345.671600,96.577637 343.720367,90.104454 
	C342.289337,85.357079 340.802643,80.885620 340.769897,75.877968 
	C340.763550,74.908173 338.434082,73.953568 337.176239,72.991959 
	C337.179962,71.210121 337.183685,69.428284 337.669373,67.241608 
	C343.399231,63.931267 348.375275,59.473980 353.960846,58.495380 
	C361.729797,57.134243 369.955353,58.385506 377.985626,58.507843 
	C391.873535,58.719418 405.761292,58.948856 419.649780,59.115498 
	C424.558685,59.174404 429.600983,58.390049 434.329498,59.301949 
	C437.100830,59.836414 440.030426,61.881016 441.827393,59.125481 
	C443.173248,57.061634 442.673950,53.794498 443.405823,51.015686 
	C445.186951,50.979774 446.558441,50.991295 447.929962,51.002811 
	C448.231415,59.053959 448.700043,67.107086 448.604736,75.153534 
	C448.593872,76.070862 445.439240,77.684669 443.711792,77.726906 
	C433.728821,77.971001 423.736694,77.837578 413.747650,77.836678 
	C401.760681,77.835594 389.771820,77.962311 377.787811,77.774254 
	C373.576721,77.708160 371.759674,78.950348 371.894836,83.447891 
	C372.159729,92.263580 371.916260,101.093567 372.013275,109.916199 
	C372.030640,111.495682 372.674469,113.068268 373.146240,115.276138 
	C374.050568,116.268913 374.836670,116.941734 375.625031,116.944427 
	C393.675903,117.005959 411.727295,117.034813 429.777588,116.917366 
	C431.173737,116.908295 432.562622,115.775391 433.954865,115.164833 
M345.873291,81.141212 
	C345.645813,80.320892 345.418365,79.500565 345.190918,78.680237 
	C344.711884,79.076027 344.232880,79.471817 343.753845,79.867615 
	C344.400940,80.482231 345.048065,81.096848 345.873291,81.141212 
z"/>
<path fill="#FFFFFF" opacity="1.000000" stroke="none" 
	d="
M255.823761,44.993031 
	C256.218353,46.708370 256.955688,48.423336 256.957581,50.139107 
	C257.009125,96.776405 256.985474,143.413788 256.722992,190.228516 
	C256.033447,189.225357 255.595367,188.044846 255.157272,186.864334 
	C253.613419,195.478806 252.942963,203.812286 251.882874,212.095901 
	C251.661407,213.826279 250.001389,215.372543 249.001465,216.534576 
	C248.998993,175.613190 249.057571,135.160660 248.919083,94.708809 
	C248.903412,90.129730 247.778000,85.554459 247.112000,80.543831 
	C246.983566,78.071655 246.910309,76.033058 246.905579,73.530899 
	C246.627274,65.064262 246.280396,57.061199 246.223648,49.121933 
	C247.807892,49.398746 249.319153,50.144455 250.354462,49.722469 
	C253.184311,48.569073 254.447754,49.561756 254.900711,52.238033 
	C255.125153,53.564098 255.154022,54.923260 255.271362,56.267448 
	C255.455490,56.252754 255.639633,56.238064 255.823761,56.223373 
	C255.823761,52.479927 255.823761,48.736477 255.823761,44.993031 
z"/>
<path fill="#FFFFFF" opacity="1.000000" stroke="none" 
	d="
M302.071045,288.124207 
	C299.918793,288.301147 297.766602,288.478088 295.711243,288.281250 
	C296.416229,287.150360 297.532135,286.398743 297.540314,285.635284 
	C297.568359,283.010345 297.026520,280.381378 297.024170,277.753693 
	C296.984009,232.842178 296.992310,187.930603 296.993347,142.587982 
	C296.994690,140.432144 296.992645,138.707382 296.991272,136.515854 
	C296.991791,128.704803 296.991608,121.360497 296.994751,113.546600 
	C296.997314,106.050377 296.996521,99.023735 296.996826,91.622803 
	C296.997589,90.499710 296.997284,89.750923 296.998596,88.626617 
	C296.999023,87.499947 296.997772,86.748779 296.996613,85.529099 
	C296.996704,66.560135 296.996704,48.059677 296.996704,29.559219 
	C297.676331,29.446285 298.355957,29.333349 299.035583,29.220413 
	C299.677124,30.683638 300.749878,32.108448 300.884277,33.616852 
	C301.414337,39.566059 301.966675,45.542599 301.946442,51.507080 
	C301.690674,126.921989 301.321991,202.336517 301.054688,277.751373 
	C301.042450,281.207764 301.716583,284.666534 302.071045,288.124207 
z"/>
<path fill="#FFFFFF" opacity="1.000000" stroke="none" 
	d="
M48.021679,272.834656 
	C44.308407,272.883331 40.595139,272.931976 36.272804,272.580078 
	C33.740620,271.803864 31.817499,271.428192 29.894379,271.052490 
	C29.894379,271.052490 29.990953,271.039398 29.770836,270.822998 
	C26.517996,269.338135 23.485273,268.069672 20.452549,266.801208 
	C20.452547,266.801208 20.241573,266.771820 20.297146,266.301514 
	C18.290390,262.553741 16.228058,259.276245 14.165724,255.998779 
	C14.105092,254.633026 14.044464,253.267273 14.194294,251.144547 
	C14.596715,248.758926 14.953997,247.130493 14.956050,245.501602 
	C14.991567,217.323929 14.983381,189.146179 14.983829,160.503479 
	C14.995811,145.030746 15.008715,130.022995 15.377872,115.171242 
	C16.152691,117.353989 16.932755,119.380066 16.936438,121.407555 
	C17.009899,161.876404 16.986650,202.345413 17.007809,242.814392 
	C17.009712,246.455261 17.029524,250.107910 17.312887,253.733856 
	C17.666000,258.252289 20.820801,260.930511 26.117455,260.980347 
	C20.106550,251.762558 22.099514,241.636810 22.090305,231.854523 
	C22.075438,216.062363 22.783791,200.270767 22.927614,184.476578 
	C22.983433,178.346817 22.072601,172.211639 22.049906,166.077271 
	C21.902866,126.336670 21.881569,86.595596 21.783789,46.854774 
	C21.782841,46.469280 21.304293,46.084961 19.980839,44.092007 
	C18.383675,48.573360 16.242004,51.884342 16.170322,55.239544 
	C15.814688,71.885887 16.036648,88.544037 15.960190,105.197594 
	C15.951332,107.126511 15.353748,109.052719 15.023422,110.513504 
	C14.992635,90.401588 14.967537,70.756355 14.954338,50.692356 
	C14.961102,49.156570 14.955966,48.039551 15.037941,46.564568 
	C15.471644,44.309319 15.818237,42.412022 16.164829,40.514729 
	C16.164829,40.514729 16.184212,40.285633 16.663086,40.311947 
	C17.480536,39.399315 17.819111,38.460365 18.157684,37.521420 
	C18.157684,37.521420 18.179375,37.289478 18.541048,37.281181 
	C19.254797,37.088646 19.363653,36.809189 19.229290,36.434513 
	C19.229290,36.434513 19.255365,36.290359 19.578735,36.292068 
	C20.259542,36.104210 20.366280,35.820080 20.222319,35.441383 
	C20.222319,35.441383 20.248684,35.285694 20.580639,35.289680 
	C21.021540,35.007172 21.130484,34.720680 21.239429,34.434189 
	C21.239431,34.434189 21.278679,34.180492 21.779282,34.385014 
	C22.842279,34.700851 23.404676,34.812168 24.187111,35.234158 
	C25.544571,37.433010 24.103775,41.025360 27.910259,41.385551 
	C26.509441,45.130672 24.397596,48.488968 24.160242,51.974895 
	C23.618435,59.932186 23.997557,67.951973 23.997257,75.946373 
	C23.995113,133.073273 23.981283,190.200165 23.998791,247.327057 
	C24.001713,256.862671 29.153591,263.689453 39.540562,263.060608 
	C41.041985,262.969727 42.589298,263.636871 43.665756,263.963318 
	C37.898994,264.128357 32.581852,264.283325 27.264709,264.438293 
	C27.184401,265.083008 27.104090,265.727722 27.023781,266.372437 
	C28.991804,267.314209 30.889919,268.849335 32.940437,269.090912 
	C40.269600,269.954407 47.650467,270.379120 55.477863,270.974487 
	C60.957966,270.989197 65.971977,270.999237 70.950562,271.466827 
	C70.892426,272.229553 70.869720,272.534668 70.847008,272.839813 
	C70.149849,272.845001 69.452698,272.850189 68.161179,272.478668 
	C61.051777,272.346161 54.536728,272.590424 48.021679,272.834656 
z"/>
<path fill="#FFFFFF" opacity="1.000000" stroke="none" 
	d="
M442.996216,51.063122 
	C442.673950,53.794498 443.173248,57.061634 441.827393,59.125481 
	C440.030426,61.881016 437.100830,59.836414 434.329498,59.301949 
	C429.600983,58.390049 424.558685,59.174404 419.649780,59.115498 
	C405.761292,58.948856 391.873535,58.719418 377.985626,58.507843 
	C369.955353,58.385506 361.729797,57.134243 353.960846,58.495380 
	C348.375275,59.473980 343.399231,63.931267 337.749207,66.870850 
	C337.333954,61.756409 337.320831,56.607891 337.969299,51.220543 
	C339.441528,50.977535 340.252197,50.973354 341.456024,50.954800 
	C342.896515,50.994030 343.943787,51.047634 345.090851,51.383877 
	C347.133179,51.508423 349.075745,51.350334 351.484680,51.161156 
	C382.299408,51.107750 412.647827,51.085438 442.996216,51.063122 
z"/>
<path fill="#FFFFFF" opacity="1.000000" stroke="none" 
	d="
M302.473602,288.011414 
	C301.716583,284.666534 301.042450,281.207764 301.054688,277.751373 
	C301.321991,202.336517 301.690674,126.921989 301.946442,51.507080 
	C301.966675,45.542599 301.414337,39.566059 300.884277,33.616852 
	C300.749878,32.108448 299.677124,30.683638 299.035583,29.220413 
	C298.355957,29.333349 297.676331,29.446285 296.996704,29.559219 
	C296.996704,48.059677 296.996704,66.560135 296.638306,85.530029 
	C295.566986,86.002785 294.854004,86.006111 294.141052,86.009438 
	C294.116180,63.549107 294.052460,41.088692 294.098328,18.628506 
	C294.107819,13.980605 295.411102,13.479409 303.927124,14.582153 
	C303.927124,44.710838 303.927124,74.931496 303.674988,105.969658 
	C303.562531,116.494499 303.702179,126.201836 303.841858,135.909164 
	C303.888824,164.738281 303.950897,193.567368 303.977539,222.396500 
	C303.996338,242.726471 303.989899,263.056580 303.912598,283.386292 
	C303.906860,284.891663 303.237183,286.394562 302.473602,288.011414 
z"/>
<path fill="#FFFFFF" opacity="1.000000" stroke="none" 
	d="
M337.123810,73.427597 
	C338.434082,73.953568 340.763550,74.908173 340.769897,75.877968 
	C340.802643,80.885620 342.289337,85.357079 343.720367,90.104454 
	C345.671600,96.577637 346.175110,103.626328 346.376892,110.455521 
	C346.688782,121.012970 345.985657,131.597290 346.157135,142.163010 
	C346.293518,150.566132 347.055908,158.960999 347.613800,167.354660 
	C347.974884,172.786942 348.690765,178.204239 348.842346,183.639557 
	C349.007385,189.557114 346.950500,191.481018 340.415863,191.533981 
	C340.333588,172.736893 340.670563,154.406860 340.973175,136.076279 
	C341.000519,134.421722 340.909210,132.750168 340.695374,131.109665 
	C340.188293,127.219589 339.157990,123.351555 339.082214,119.460136 
	C338.859863,108.045471 339.077454,96.622650 338.915802,85.205956 
	C338.891083,83.460632 337.769653,81.730827 337.155457,79.993851 
	C337.127411,77.950310 337.099396,75.906769 337.123810,73.427597 
z"/>
<path fill="#FFFFFF" opacity="1.000000" stroke="none" 
	d="
M337.126251,239.038147 
	C337.076355,235.053452 337.106201,231.065628 336.950012,227.085098 
	C336.835205,224.158188 337.910492,222.752167 340.991302,222.985077 
	C346.573700,223.407074 352.354767,222.925629 357.711548,224.226730 
	C367.147614,226.518600 367.503906,234.311752 366.831421,242.091965 
	C366.302460,248.211578 360.134338,253.434570 353.466522,253.934708 
	C349.019836,254.268219 344.550507,254.856583 340.118164,254.675125 
	C335.185394,254.473175 337.538422,250.323700 337.277130,247.184265 
	C338.591736,248.234161 339.647888,249.860489 340.704041,251.486816 
	C341.018097,251.404602 341.332184,251.322388 341.646240,251.240173 
	C341.646240,242.803040 341.646240,234.365906 341.646240,225.928772 
	C340.466553,227.761276 340.053802,229.881195 339.455688,231.947449 
	C338.764374,234.335663 337.909882,236.676651 337.126251,239.038147 
M344.205017,246.845413 
	C347.146179,249.539337 353.977173,249.207062 357.101929,246.218094 
	C360.375458,243.086807 360.950012,236.299057 358.229523,232.896454 
	C356.016541,230.128586 347.606842,227.759399 345.514374,229.602051 
	C344.586090,230.419510 344.136017,232.168762 344.083252,233.519073 
	C343.921265,237.660431 344.056671,241.813400 344.205017,246.845413 
z"/>
<path fill="#FFFFFF" opacity="1.000000" stroke="none" 
	d="
M255.891022,44.665173 
	C255.823761,48.736477 255.823761,52.479927 255.823761,56.223373 
	C255.639633,56.238064 255.455490,56.252754 255.271362,56.267448 
	C255.154022,54.923260 255.125153,53.564098 254.900711,52.238033 
	C254.447754,49.561756 253.184311,48.569073 250.354462,49.722469 
	C249.319153,50.144455 247.807892,49.398746 245.904602,48.947884 
	C244.143982,43.591709 240.772446,39.975670 235.931854,39.208061 
	C230.488190,38.344810 224.802216,39.009476 218.835403,39.009476 
	C218.835403,50.099064 218.835403,60.550213 218.494324,70.826401 
	C217.769318,68.793610 217.068817,66.938461 217.053085,65.077515 
	C216.954529,53.425152 217.008682,41.771496 217.479126,30.086340 
	C224.640686,30.064091 231.335449,30.073772 238.316406,30.296371 
	C241.769623,31.322857 244.936615,32.136425 248.103622,32.949997 
	C248.103622,32.949997 248.034103,32.959820 248.107513,33.206383 
	C248.642197,33.706524 249.103500,33.960102 249.564789,34.213680 
	C249.564789,34.213680 249.758270,34.243279 249.773560,34.555832 
	C249.948624,35.166237 250.192001,35.271355 250.518997,35.183735 
	C250.518997,35.183735 250.749023,35.212257 250.717224,35.672745 
	C252.061203,38.092869 253.436981,40.052513 254.812744,42.012161 
	C255.194580,42.787212 255.576431,43.562263 255.891022,44.665173 
z"/>
<path fill="#FFFFFF" opacity="1.000000" stroke="none" 
	d="
M71.257324,272.908508 
	C70.869720,272.534668 70.892426,272.229553 71.401688,271.463440 
	C75.792892,270.547302 79.703262,269.673248 83.601006,269.726318 
	C91.156647,269.829254 98.713974,270.905609 106.254654,270.758881 
	C118.364098,270.523163 130.455505,269.284882 142.564056,269.102631 
	C153.162964,268.943024 163.773926,269.862152 174.381485,269.914001 
	C182.820267,269.955261 191.261978,269.216736 199.702271,269.219208 
	C202.805878,269.220093 205.909164,270.352936 208.601746,270.978455 
	C206.343536,270.987427 204.496201,270.987427 202.648849,270.987427 
	C202.655640,271.270996 202.662430,271.554565 202.669220,271.838135 
	C203.450851,271.897583 204.232468,271.957062 205.008453,272.221924 
	C205.002792,272.427368 204.991180,272.838196 204.991180,272.838196 
	C174.366211,272.894348 143.741241,272.961060 113.116249,273.001862 
	C99.300087,273.020264 85.483849,272.987030 71.257324,272.908508 
z"/>
<path fill="#FFFFFF" opacity="1.000000" stroke="none" 
	d="
M238.030212,30.083454 
	C231.335449,30.073772 224.640686,30.064091 217.010147,30.052082 
	C165.383713,30.069256 114.693062,30.088758 63.602554,30.083584 
	C62.134998,30.066120 61.067295,30.073332 59.562653,30.050993 
	C57.080551,30.045853 55.035389,30.070263 52.523209,30.070192 
	C45.708012,30.356447 39.359825,30.667187 32.650742,30.987701 
	C31.153469,31.293564 30.017097,31.589653 28.540222,31.913269 
	C27.129974,32.319736 26.060234,32.698673 24.976604,32.784084 
	C24.958471,32.294697 24.954229,32.098835 24.949986,31.902977 
	C30.040365,30.606155 35.126301,28.201326 40.221798,28.180883 
	C103.452499,27.927233 166.684616,28.009304 229.916290,28.067467 
	C232.331345,28.069687 234.745789,28.702839 237.587616,29.338240 
	C238.014709,29.634491 238.030212,30.083454 238.030212,30.083454 
z"/>
<path fill="#FFFFFF" opacity="1.000000" stroke="none" 
	d="
M296.990570,136.982605 
	C296.992645,138.707382 296.994690,140.432144 296.763702,142.928986 
	C296.355286,145.668945 296.029114,147.636642 296.027008,149.604721 
	C295.990967,183.326721 296.027008,217.048874 295.912170,250.770554 
	C295.905121,252.839569 294.775085,254.904755 294.167511,256.971710 
	C294.109650,216.255615 294.041687,175.539536 293.999420,134.823425 
	C293.984955,120.863152 294.034698,106.902817 294.455505,92.472786 
	C295.569183,92.001068 296.282471,91.999077 296.995728,91.997093 
	C296.996521,99.023735 296.997314,106.050377 296.764832,113.887878 
	C296.684540,122.126701 296.837555,129.554657 296.990570,136.982605 
z"/>
<path fill="#FFFFFF" opacity="1.000000" stroke="none" 
	d="
M337.105438,80.460533 
	C337.769653,81.730827 338.891083,83.460632 338.915802,85.205956 
	C339.077454,96.622650 338.859863,108.045471 339.082214,119.460136 
	C339.157990,123.351555 340.188293,127.219589 340.695374,131.109665 
	C340.909210,132.750168 341.000519,134.421722 340.973175,136.076279 
	C340.670563,154.406860 340.333588,172.736893 340.010529,191.536346 
	C340.966614,193.392136 341.918121,194.778641 342.946655,196.468414 
	C338.696503,197.314468 336.974396,195.256744 336.980713,191.061111 
	C337.035919,154.349869 337.037750,117.638527 337.105438,80.460533 
z"/>
<path fill="#FFFFFF" opacity="1.000000" stroke="none" 
	d="
M256.826447,252.972534 
	C257.380859,259.720886 252.859894,263.671478 248.125259,267.530609 
	C246.808319,265.502106 246.021042,263.739197 245.230835,261.969788 
	C243.858734,262.470642 242.435806,263.339874 240.946701,263.473907 
	C233.973679,264.101471 226.982437,264.526642 220.017151,264.781036 
	C221.685074,264.081238 223.333542,263.624451 225.427704,263.094757 
	C230.863235,261.911072 236.335815,261.732574 240.724304,259.460358 
	C246.586945,256.424805 246.751938,249.684113 246.908585,243.900146 
	C247.277191,230.289459 247.116287,216.664429 247.360870,203.403290 
	C247.552109,217.280029 247.552109,230.798706 247.552109,244.317368 
	C248.045013,244.319214 248.537903,244.321060 249.030807,244.322891 
	C249.030807,238.889038 249.030807,233.455185 249.254974,228.366348 
	C249.798386,236.547165 250.117630,244.382965 250.436874,252.218750 
	C251.000320,252.246140 251.563766,252.273514 252.127197,252.300903 
	C252.986069,247.808960 253.844940,243.317001 254.703827,238.825058 
	C254.972443,238.852707 255.241058,238.880356 255.509674,238.908020 
	C255.948593,243.596191 256.387512,248.284363 256.826447,252.972534 
z"/>
<path fill="#FFFFFF" opacity="1.000000" stroke="none" 
	d="
M256.899719,252.511230 
	C256.387512,248.284363 255.948593,243.596191 255.509674,238.908020 
	C255.241058,238.880356 254.972443,238.852707 254.703827,238.825058 
	C253.844940,243.317001 252.986069,247.808960 252.127197,252.300903 
	C251.563766,252.273514 251.000320,252.246140 250.436874,252.218750 
	C250.117630,244.382965 249.798386,236.547165 249.243042,227.906036 
	C249.006058,223.735031 249.005157,220.369339 249.004272,217.003647 
	C250.001389,215.372543 251.661407,213.826279 251.882874,212.095901 
	C252.942963,203.812286 253.613419,195.478806 255.157272,186.864334 
	C255.595367,188.044846 256.033447,189.225357 256.652466,190.690948 
	C256.882751,192.057953 256.932098,193.139893 256.708740,194.980682 
	C256.290649,204.875870 256.052826,214.012115 256.045807,223.148560 
	C256.043060,226.758728 256.554077,230.369278 256.831146,233.979660 
	C256.878448,240.003082 256.925751,246.026505 256.899719,252.511230 
z"/>
<path fill="#FFFFFF" opacity="1.000000" stroke="none" 
	d="
M395.997955,248.000931 
	C395.390167,249.631104 395.256134,251.869614 394.087524,252.779648 
	C390.277954,255.746338 380.302612,254.124207 376.995239,250.382660 
	C373.787628,246.753967 373.781128,238.695740 376.982544,234.582840 
	C380.236816,230.402054 386.753235,228.653030 391.297729,230.740616 
	C396.680969,233.213501 398.660492,237.560944 397.067780,244.306183 
	C395.059265,242.824371 393.475159,241.381317 391.861145,239.577423 
	C389.498993,234.425415 385.787201,235.727371 381.832153,236.820175 
	C380.654266,236.639450 378.915558,236.589966 378.910339,236.663528 
	C378.649872,240.333374 377.992065,244.135468 378.767517,247.613220 
	C378.979248,248.562683 383.547150,248.540833 386.492889,248.969772 
	C388.556274,248.647797 390.242676,248.320801 392.213165,248.109924 
	C393.664185,248.151016 394.831055,248.075974 395.997955,248.000931 
z"/>
<path fill="#FFFFFF" opacity="1.000000" stroke="none" 
	d="
M14.984753,160.968460 
	C14.983381,189.146179 14.991567,217.323929 14.956050,245.501602 
	C14.953997,247.130493 14.596715,248.758926 14.167820,250.734375 
	C13.930887,251.081192 13.976011,251.038055 13.977201,250.588593 
	C13.990691,242.685333 14.105343,235.229752 13.977538,227.778336 
	C13.898795,223.187347 13.450058,218.602692 13.167440,214.015198 
	C13.121544,213.564041 13.075648,213.112869 13.291411,211.992798 
	C13.424087,208.553543 13.295102,205.783188 13.166119,203.012833 
	C13.112887,169.584671 13.021443,136.156494 13.021361,102.728333 
	C13.021315,83.941818 13.172195,65.155296 13.755726,46.322235 
	C14.446969,46.535213 14.678454,46.750824 14.950830,46.922527 
	C14.955966,48.039551 14.961102,49.156570 14.728984,51.022415 
	C14.331644,52.748844 14.032210,53.726364 14.031630,54.704063 
	C14.011439,88.695831 14.007751,122.687630 14.064058,156.679321 
	C14.066427,158.109528 14.664303,159.538773 14.984753,160.968460 
z"/>
<path fill="#FFFFFF" opacity="1.000000" stroke="none" 
	d="
M344.991089,51.101238 
	C343.943787,51.047634 342.896515,50.994030 341.441895,50.658630 
	C341.055939,49.981327 341.077301,49.585819 341.098694,49.190311 
	C374.526947,49.143700 407.955261,49.074722 441.383423,49.104580 
	C443.446167,49.106422 445.508209,49.887207 447.750244,50.654194 
	C446.558441,50.991295 445.186951,50.979774 443.405823,51.015686 
	C412.647827,51.085438 382.299408,51.107750 351.057190,51.101093 
	C348.439270,51.081829 346.715179,51.091534 344.991089,51.101238 
z"/>
<path fill="#FFFFFF" opacity="1.000000" stroke="none" 
	d="
M219.997711,265.024078 
	C226.982437,264.526642 233.973679,264.101471 240.946701,263.473907 
	C242.435806,263.339874 243.858734,262.470642 245.230835,261.969788 
	C246.021042,263.739197 246.808319,265.502106 247.787979,267.551117 
	C243.256378,269.552032 238.532394,271.266815 233.397552,272.711731 
	C232.986694,272.441895 232.983658,272.048157 232.926147,271.768738 
	C226.246902,271.320251 219.625168,271.151123 213.110764,270.650513 
	C215.477966,268.554047 217.737839,266.789062 219.997711,265.024078 
z"/>
<path fill="#FFFFFF" opacity="1.000000" stroke="none" 
	d="
M294.107330,257.426453 
	C294.775085,254.904755 295.905121,252.839569 295.912170,250.770554 
	C296.027008,217.048874 295.990967,183.326721 296.027008,149.604721 
	C296.029114,147.636642 296.355286,145.668945 296.760284,143.360046 
	C296.992310,187.930603 296.984009,232.842178 297.024170,277.753693 
	C297.026520,280.381378 297.568359,283.010345 297.540314,285.635284 
	C297.532135,286.398743 296.416229,287.150360 295.515900,287.968018 
	C294.907532,287.535095 294.591339,287.041595 294.560425,286.092224 
	C296.457581,279.371826 297.403870,273.132538 294.141785,267.052643 
	C294.110260,263.995483 294.078705,260.938324 294.107330,257.426453 
z"/>
<path fill="#FFFFFF" opacity="1.000000" stroke="none" 
	d="
M415.062408,245.913498 
	C416.888458,242.918289 418.766968,239.953278 420.515747,236.913605 
	C421.254517,235.629501 421.424377,233.907379 422.388031,232.892563 
	C423.488861,231.733383 425.185577,231.140076 426.623352,230.300873 
	C426.841400,231.905411 427.704071,233.780884 427.163696,235.066650 
	C425.050598,240.094391 422.678802,245.039764 420.004120,249.791138 
	C419.039276,251.505157 416.875702,253.751144 415.396027,253.654663 
	C413.654877,253.541138 412.007690,251.203354 410.443695,249.701050 
	C410.047211,249.320190 410.121063,248.449692 410.260620,247.409485 
	C411.669556,245.089737 414.409576,249.784851 415.062408,245.913498 
z"/>
<path fill="#FFFFFF" opacity="1.000000" stroke="none" 
	d="
M386.115875,248.964752 
	C383.547150,248.540833 378.979248,248.562683 378.767517,247.613220 
	C377.992065,244.135468 378.649872,240.333374 378.910339,236.663528 
	C378.915558,236.589966 380.654266,236.639450 381.835876,237.221130 
	C384.556366,242.201752 388.624146,239.224930 391.891083,239.938248 
	C393.475159,241.381317 395.059265,242.824371 396.787292,244.573700 
	C396.624207,245.694626 396.317139,246.509293 396.003998,247.662445 
	C394.831055,248.075974 393.664185,248.151016 392.369873,247.832855 
	C392.753937,246.660995 393.265381,245.882339 394.318451,244.279053 
	C389.121857,244.596588 384.781250,244.861816 379.771332,245.167938 
	C382.296936,246.679352 384.206390,247.822052 386.115875,248.964752 
z"/>
<path fill="#FFFFFF" opacity="1.000000" stroke="none" 
	d="
M433.491333,115.119675 
	C432.562622,115.775391 431.173737,116.908295 429.777588,116.917366 
	C411.727295,117.034813 393.675903,117.005959 375.625031,116.944427 
	C374.836670,116.941734 374.050568,116.268913 373.368469,115.597885 
	C393.324951,115.216515 413.176361,115.145515 433.491333,115.119675 
z"/>
<path fill="#272126" opacity="1.000000" stroke="none" 
	d="
M415.034760,245.539978 
	C414.409576,249.784851 411.669556,245.089737 410.223816,247.035980 
	C408.005402,242.858551 405.985809,238.707458 404.288086,234.428635 
	C403.850128,233.324875 404.423584,231.819824 404.532440,230.499115 
	C406.102386,231.026581 408.508820,231.095108 409.094482,232.162582 
	C411.378357,236.325470 413.085510,240.804794 415.034760,245.539978 
z"/>
<path fill="#544E56" opacity="1.000000" stroke="none" 
	d="
M337.091858,239.474823 
	C337.909882,236.676651 338.764374,234.335663 339.455688,231.947449 
	C340.053802,229.881195 340.466553,227.761276 341.646240,225.928772 
	C341.646240,234.365906 341.646240,242.803040 341.646240,251.240173 
	C341.332184,251.322388 341.018097,251.404602 340.704041,251.486816 
	C339.647888,249.860489 338.591736,248.234161 337.339142,246.750122 
	C337.114258,244.565430 337.085876,242.238449 337.091858,239.474823 
z"/>
<path fill="#5A5E61" opacity="1.000000" stroke="none" 
	d="
M679.902710,113.526154 
	C679.357422,113.566124 678.538513,113.261292 678.404724,112.769951 
	C676.224792,104.762108 674.131531,96.730667 672.038086,88.300156 
	C677.095276,95.541451 679.470581,104.020851 679.902710,113.526154 
z"/>
<path fill="#7C8087" opacity="1.000000" stroke="none" 
	d="
M610.894531,48.868797 
	C604.909912,49.246342 598.925232,49.623894 592.464233,49.645050 
	C592.013672,48.585285 592.039551,47.881912 592.065430,47.178539 
	C598.046143,47.174541 604.026794,47.170547 610.440918,47.531582 
	C610.898254,48.220318 610.904968,48.544380 610.894531,48.868797 
z"/>
<path fill="#65666A" opacity="1.000000" stroke="none" 
	d="
M611.304443,48.935932 
	C610.904968,48.544380 610.898254,48.220318 610.888855,47.652985 
	C618.816711,49.382725 626.730164,51.356091 634.877930,53.598721 
	C632.958984,53.485260 630.792786,53.163357 628.654907,52.708027 
	C623.001526,51.503906 617.360352,50.241982 611.304443,48.935932 
z"/>
<path fill="#FF8255" opacity="1.000000" stroke="none" 
	d="
M256.902039,233.517059 
	C256.554077,230.369278 256.043060,226.758728 256.045807,223.148560 
	C256.052826,214.012115 256.290649,204.875870 256.636230,195.381821 
	C256.881958,207.700897 256.927460,220.377670 256.902039,233.517059 
z"/>
<path fill="#FE743A" opacity="1.000000" stroke="none" 
	d="
M13.095259,214.477875 
	C13.450058,218.602692 13.898795,223.187347 13.977538,227.778336 
	C14.105343,235.229752 13.990691,242.685333 13.960236,250.613373 
	C13.630014,249.744659 13.055978,248.403412 13.047354,247.058548 
	C12.978707,236.352936 13.017345,225.646622 13.095259,214.477875 
z"/>
<path fill="#544E56" opacity="1.000000" stroke="none" 
	d="
M294.095886,267.514954 
	C297.403870,273.132538 296.457581,279.371826 294.504211,285.804199 
	C294.125122,279.973785 294.087555,273.975555 294.095886,267.514954 
z"/>
<path fill="#FFFFFF" opacity="1.000000" stroke="none" 
	d="
M664.929138,76.661194 
	C661.098450,73.134392 657.108398,69.301003 653.088623,65.110138 
	C656.962463,68.619987 660.866150,72.487297 664.929138,76.661194 
z"/>
<path fill="#FFFFFF" opacity="1.000000" stroke="none" 
	d="
M587.541382,48.069580 
	C586.795532,48.744160 585.685364,49.701965 584.429810,49.964714 
	C580.182617,50.853504 575.883789,51.495968 571.279053,52.107540 
	C576.339050,50.666424 581.724792,49.350357 587.541382,48.069580 
z"/>
<path fill="#FFFFFF" opacity="1.000000" stroke="none" 
	d="
M303.902863,135.450684 
	C303.702179,126.201836 303.562531,116.494499 303.633118,106.442795 
	C303.883545,115.729683 303.923706,125.360947 303.902863,135.450684 
z"/>
<path fill="#FFFFFF" opacity="1.000000" stroke="none" 
	d="
M232.983658,272.048157 
	C232.983658,272.048157 232.986694,272.441895 232.988510,272.638763 
	C223.967499,272.883209 214.944687,272.930817 205.456512,272.908295 
	C204.991180,272.838196 205.002792,272.427368 205.475540,272.216736 
	C214.960083,272.020111 223.971863,272.034149 232.983658,272.048157 
z"/>
<path fill="#65666A" opacity="1.000000" stroke="none" 
	d="
M648.909607,61.672302 
	C645.120056,59.812702 641.144409,57.662491 637.098999,55.169540 
	C640.927368,57.011768 644.825439,59.196732 648.909607,61.672302 
z"/>
<path fill="#FF7E49" opacity="1.000000" stroke="none" 
	d="
M48.484322,272.903503 
	C54.536728,272.590424 61.051777,272.346161 68.070908,272.135376 
	C62.032310,272.436676 55.489635,272.704498 48.484322,272.903503 
z"/>
<path fill="#FFFFFF" opacity="1.000000" stroke="none" 
	d="
M14.202389,256.350708 
	C16.228058,259.276245 18.290390,262.553741 20.281376,266.196167 
	C18.219706,263.274994 16.229378,259.988831 14.202389,256.350708 
z"/>
<path fill="#FFFFFF" opacity="1.000000" stroke="none" 
	d="
M238.316406,30.296371 
	C238.030212,30.083454 238.014709,29.634491 238.017960,29.409895 
	C241.268448,30.224045 244.515671,31.262789 247.933258,32.625763 
	C244.936615,32.136425 241.769623,31.322857 238.316406,30.296371 
z"/>
<path fill="#FFFFFF" opacity="1.000000" stroke="none" 
	d="
M672.048584,87.606865 
	C670.437622,85.517899 668.745911,83.082863 667.051270,80.274246 
	C668.688110,82.354042 670.327942,84.807419 672.048584,87.606865 
z"/>
<path fill="#FFFFFF" opacity="1.000000" stroke="none" 
	d="
M20.672041,267.057312 
	C23.485273,268.069672 26.517996,269.338135 29.776440,270.871399 
	C26.965284,269.861938 23.928408,268.587646 20.672041,267.057312 
z"/>
<path fill="#FFFFFF" opacity="1.000000" stroke="none" 
	d="
M15.037941,46.564568 
	C14.678454,46.750824 14.446969,46.535213 14.121580,46.077633 
	C14.538960,44.230118 15.091133,42.580662 15.904068,40.722969 
	C15.818237,42.412022 15.471644,44.309319 15.037941,46.564568 
z"/>
<path fill="#FE8E63" opacity="1.000000" stroke="none" 
	d="
M254.786575,41.668301 
	C253.436981,40.052513 252.061203,38.092869 250.738678,35.786633 
	C252.114761,37.401508 253.437592,39.362976 254.786575,41.668301 
z"/>
<path fill="#544E56" opacity="1.000000" stroke="none" 
	d="
M294.089478,86.380280 
	C294.854004,86.006111 295.566986,86.002785 296.638245,85.998535 
	C296.997772,86.748779 296.999023,87.499947 296.640350,88.625717 
	C295.567078,88.996819 294.853729,88.993324 294.140381,88.989822 
	C294.106232,88.243591 294.072052,87.497353 294.089478,86.380280 
z"/>
<path fill="#4F4A50" opacity="1.000000" stroke="none" 
	d="
M294.082336,89.365387 
	C294.853729,88.993324 295.567078,88.996819 296.638672,89.001221 
	C296.997284,89.750923 296.997589,90.499710 296.996826,91.622803 
	C296.282471,91.999077 295.569183,92.001068 294.502258,92.006920 
	C294.107178,91.254173 294.065735,90.497559 294.082336,89.365387 
z"/>
<path fill="#FE743A" opacity="1.000000" stroke="none" 
	d="
M13.095880,203.456970 
	C13.295102,205.783188 13.424087,208.553543 13.361336,211.658142 
	C13.121614,209.295303 13.073627,206.598206 13.095880,203.456970 
z"/>
<path fill="#FF8255" opacity="1.000000" stroke="none" 
	d="
M30.082653,271.378723 
	C31.817499,271.428192 33.740620,271.803864 35.814651,272.506165 
	C34.067352,272.456787 32.169140,272.080841 30.082653,271.378723 
z"/>
<path fill="#FE8E63" opacity="1.000000" stroke="none" 
	d="
M24.642447,31.947828 
	C24.954229,32.098835 24.958471,32.294697 24.857395,33.019085 
	C24.490408,34.006241 24.228741,34.464863 23.967073,34.923485 
	C23.404676,34.812168 22.842279,34.700851 21.906933,34.371574 
	C22.467623,33.433304 23.401264,32.712994 24.642447,31.947828 
z"/>
<path fill="#FE8E63" opacity="1.000000" stroke="none" 
	d="
M17.939846,37.696472 
	C17.819111,38.460365 17.480536,39.399315 16.776184,40.291359 
	C16.847607,39.453480 17.284809,38.662502 17.939846,37.696472 
z"/>
<path fill="#5A5E61" opacity="1.000000" stroke="none" 
	d="
M591.750977,47.126442 
	C592.039551,47.881912 592.013672,48.585285 592.003174,49.640205 
	C591.380737,49.437954 590.742859,48.884151 589.958130,48.043549 
	C590.352966,47.529282 590.894653,47.301815 591.750977,47.126442 
z"/>
<path fill="#505252" opacity="1.000000" stroke="none" 
	d="
M340.766510,49.116577 
	C341.077301,49.585819 341.055939,49.981327 341.048706,50.673004 
	C340.252197,50.973354 339.441528,50.977535 338.225342,50.963058 
	C338.691315,50.310551 339.562805,49.676697 340.766510,49.116577 
z"/>
<path fill="#5A5E61" opacity="1.000000" stroke="none" 
	d="
M667.067505,79.638504 
	C666.433838,79.178238 665.747070,78.396599 665.049072,77.263397 
	C665.696716,77.713608 666.355652,78.515366 667.067505,79.638504 
z"/>
<path fill="#65666A" opacity="1.000000" stroke="none" 
	d="
M650.988831,62.565239 
	C650.471130,62.702015 649.789124,62.575455 649.070923,62.164616 
	C649.631348,62.020859 650.227905,62.161381 650.988831,62.565239 
z"/>
<path fill="#FE8E63" opacity="1.000000" stroke="none" 
	d="
M249.397095,34.014839 
	C249.103500,33.960102 248.642197,33.706524 248.108871,33.171310 
	C248.434357,33.198448 248.831879,33.507225 249.397095,34.014839 
z"/>
<path fill="#FE8E63" opacity="1.000000" stroke="none" 
	d="
M19.073105,36.549744 
	C19.363653,36.809189 19.254797,37.088646 18.655611,37.260155 
	C18.549503,37.028435 18.718977,36.834282 19.073105,36.549744 
z"/>
<path fill="#FE8E63" opacity="1.000000" stroke="none" 
	d="
M20.065073,35.556942 
	C20.366280,35.820080 20.259542,36.104210 19.650658,36.278198 
	C19.532379,36.034580 19.701920,35.837875 20.065073,35.556942 
z"/>
<path fill="#FE8E63" opacity="1.000000" stroke="none" 
	d="
M250.414490,35.042503 
	C250.192001,35.271355 249.948624,35.166237 249.786789,34.652802 
	C249.985245,34.563099 250.160324,34.717789 250.414490,35.042503 
z"/>
<path fill="#FE8E63" opacity="1.000000" stroke="none" 
	d="
M21.077536,34.547138 
	C21.130484,34.720680 21.021540,35.007172 20.658350,35.275745 
	C20.540056,35.029018 20.710569,34.829773 21.077536,34.547138 
z"/>
<path fill="#5A5E61" opacity="1.000000" stroke="none" 
	d="
M680.784973,115.683395 
	C680.593506,115.729424 680.397522,115.507370 680.128540,115.056000 
	C680.308777,114.993927 680.550354,115.190132 680.784973,115.683395 
z"/>
<path fill="#000000" opacity="1.000000" stroke="none" 
	d="
M644.213989,131.095322 
	C641.996155,148.338104 628.148865,164.476242 611.553772,167.584702 
	C586.470825,172.283020 562.339294,161.574127 556.854492,133.950958 
	C551.884399,108.919853 560.608582,84.456123 590.794006,78.363228 
	C616.355591,73.203651 641.122009,87.460121 644.047607,116.000343 
	C644.544312,120.845863 644.230408,125.774483 644.213989,131.095322 
z"/>
<path fill="#4B494A" opacity="1.000000" stroke="none" 
	d="
M345.784241,81.426346 
	C345.048065,81.096848 344.400940,80.482231 343.753845,79.867615 
	C344.232880,79.471817 344.711884,79.076027 345.190918,78.680237 
	C345.418365,79.500565 345.645813,80.320892 345.784241,81.426346 
z"/>
<path fill="#000000" opacity="1.000000" stroke="none" 
	d="
M247.169617,203.045212 
	C247.116287,216.664429 247.277191,230.289459 246.908585,243.900146 
	C246.751938,249.684113 246.586945,256.424805 240.724304,259.460358 
	C236.335815,261.732574 230.863235,261.911072 225.031281,263.025574 
	C220.905121,263.516144 218.240875,263.026520 217.901215,258.624878 
	C217.679642,257.155304 217.384460,256.051819 217.042419,254.627197 
	C216.937881,253.878693 216.880188,253.451324 216.798584,252.672729 
	C215.127151,249.725067 213.479645,247.128632 211.785065,244.389359 
	C211.737976,244.246521 211.449341,244.161896 211.256409,243.901123 
	C210.143921,243.128403 209.224380,242.616440 207.958740,242.200485 
	C207.672363,242.528397 207.732086,242.760269 207.809219,242.950348 
	C207.826630,242.908569 207.864426,242.826309 208.100052,242.659912 
	C208.245758,242.323502 208.155823,242.153519 208.032761,241.781372 
	C207.669067,241.443161 207.338501,241.307098 206.616241,241.098938 
	C205.164383,240.981781 204.104263,240.936722 202.886368,240.584030 
	C201.825516,240.243073 200.922424,240.209763 199.683990,240.105698 
	C198.897583,240.086273 198.446518,240.137589 197.531799,240.118484 
	C191.753357,240.033707 186.438553,240.000793 181.123810,240.007965 
	C144.089554,240.057877 107.055305,240.116089 69.686722,240.099243 
	C68.901054,240.073898 68.449715,240.120911 67.637718,240.095078 
	C66.125374,240.540146 65.014885,241.195892 63.815540,241.554398 
	C53.472393,244.646042 49.651711,249.121796 49.047104,259.287384 
	C48.852386,262.561310 47.455437,264.188904 44.115376,263.953247 
	C42.589298,263.636871 41.041985,262.969727 39.540562,263.060608 
	C29.153591,263.689453 24.001713,256.862671 23.998791,247.327057 
	C23.981283,190.200165 23.995113,133.073273 23.997257,75.946373 
	C23.997557,67.951973 23.618435,59.932186 24.160242,51.974895 
	C24.397596,48.488968 26.509441,45.130672 27.891197,41.366650 
	C28.012289,41.018879 28.014071,41.072468 28.327072,41.030319 
	C29.110167,40.674030 29.580259,40.359890 30.023581,40.025806 
	C29.996809,40.005863 30.040884,40.057327 30.467007,40.022423 
	C36.579765,39.690086 42.266407,39.392654 47.979263,39.503258 
	C48.321411,43.983654 48.894161,48.056080 48.893051,52.128349 
	C48.891384,58.228687 48.351070,64.327477 48.286118,70.429543 
	C48.196243,78.872787 48.332573,87.318481 48.376720,95.763107 
	C48.427658,105.506660 49.032116,115.287437 48.373619,124.982597 
	C47.788345,133.599716 47.867630,142.054749 50.740322,150.132248 
	C53.705849,158.470749 63.958969,164.154968 76.423279,162.904922 
	C78.551758,163.021912 80.258987,163.067490 82.210953,163.469070 
	C99.541542,163.564163 116.626640,163.223068 133.713440,163.066833 
	C148.254852,162.933868 162.799118,163.105179 177.340240,162.956848 
	C183.593140,162.893066 189.840958,162.355453 196.091751,162.046692 
	C198.046204,161.950150 200.002869,161.898056 202.334686,161.897491 
	C203.836975,161.664185 204.963120,161.358994 206.459686,161.027817 
	C209.470001,158.864487 213.043579,157.247284 214.577484,154.493835 
	C219.496292,145.664246 219.328659,135.795639 218.901871,125.536606 
	C218.925919,107.048744 218.880661,89.025055 218.835403,71.001358 
	C218.835403,60.550213 218.835403,50.099064 218.835403,39.009476 
	C224.802216,39.009476 230.488190,38.344810 235.931854,39.208061 
	C240.772446,39.975670 244.143982,43.591709 245.614487,48.884094 
	C246.280396,57.061199 246.627274,65.064262 246.544861,73.763626 
	C246.077255,103.773087 246.031769,133.086243 246.035767,162.399384 
	C246.035873,163.264862 246.556808,164.130295 246.908875,165.459503 
	C247.045105,178.297241 247.107361,190.671219 247.169617,203.045212 
z"/>
<path fill="#FF8C5E" opacity="1.000000" stroke="none" 
	d="
M247.360870,203.403290 
	C247.107361,190.671219 247.045105,178.297241 246.963745,164.994751 
	C247.018829,136.369980 247.092987,108.673698 247.167145,80.977417 
	C247.778000,85.554459 248.903412,90.129730 248.919083,94.708809 
	C249.057571,135.160660 248.998993,175.613190 249.001465,216.534576 
	C249.005157,220.369339 249.006058,223.735031 249.018875,227.561035 
	C249.030807,233.455185 249.030807,238.889038 249.030807,244.322891 
	C248.537903,244.321060 248.045013,244.319214 247.552109,244.317368 
	C247.552109,230.798706 247.552109,217.280029 247.360870,203.403290 
z"/>
<path fill="#FFFF00" opacity="1.000000" stroke="none" 
	d="
M247.111984,80.543831 
	C247.092987,108.673698 247.018829,136.369980 246.889801,164.531006 
	C246.556808,164.130295 246.035873,163.264862 246.035767,162.399384 
	C246.031769,133.086243 246.077255,103.773087 246.476303,74.227203 
	C246.910309,76.033058 246.983566,78.071655 247.111984,80.543831 
z"/>
<path fill="#4C4650" opacity="1.000000" stroke="none" 
	d="
M296.991272,136.515854 
	C296.837555,129.554657 296.684540,122.126701 296.761475,114.357468 
	C296.991608,121.360497 296.991791,128.704803 296.991272,136.515854 
z"/>
<path fill="#FF854A" opacity="1.000000" stroke="none" 
	d="
M67.998375,240.167938 
	C68.449715,240.120911 68.901054,240.073898 70.045013,240.299728 
	C73.050171,240.719315 75.362511,240.990479 77.675285,240.994110 
	C113.121002,241.049896 148.566788,241.070786 183.926453,241.451904 
	C183.136765,244.394745 179.107925,247.540039 185.149719,249.255630 
	C185.506836,249.934616 185.758621,250.381287 185.606873,250.912231 
	C180.846237,253.624130 183.557999,257.767792 183.331192,261.191284 
	C183.299545,261.669189 186.778976,262.637482 188.700317,262.917633 
	C190.799789,263.223755 192.977585,262.977631 195.120911,263.001373 
	C199.079941,263.045197 203.038742,263.110352 207.106400,263.474243 
	C208.698929,265.962555 212.368439,267.297028 209.751740,270.970703 
	C209.505356,270.971527 209.012604,270.969452 209.012604,270.969482 
	C205.909164,270.352936 202.805878,269.220093 199.702271,269.219208 
	C191.261978,269.216736 182.820267,269.955261 174.381485,269.914001 
	C163.773926,269.862152 153.162964,268.943024 142.564056,269.102631 
	C130.455505,269.284882 118.364098,270.523163 106.254654,270.758881 
	C98.713974,270.905609 91.156647,269.829254 83.601006,269.726318 
	C79.703262,269.673248 75.792892,270.547302 71.437111,271.005859 
	C65.971977,270.999237 60.957966,270.989197 55.394352,270.618469 
	C54.257236,266.800079 53.488857,263.356171 53.223545,259.873901 
	C53.165314,259.109619 54.896622,258.209045 55.803825,257.371216 
	C56.431137,258.357513 56.993977,259.393402 57.703770,260.316254 
	C58.426388,261.255798 59.293671,262.084076 60.549973,262.980621 
	C64.342522,263.055725 67.682724,263.111298 71.381805,263.364258 
	C72.888779,263.707245 74.036766,263.978943 75.184982,263.979889 
	C103.001183,264.003082 130.817429,264.009827 158.633575,263.961548 
	C160.081131,263.959015 161.527802,263.443542 163.418854,263.092926 
	C166.552856,262.977356 169.242905,262.935760 172.208252,262.990662 
	C172.963165,259.910522 173.680740,256.746857 173.854797,253.553589 
	C174.025726,250.417618 172.304276,248.705124 168.515686,249.000565 
	C138.263000,248.996216 108.477798,248.961182 78.693138,249.072327 
	C76.795433,249.079391 74.901970,250.220932 72.593071,250.911057 
	C69.788010,251.268280 67.396408,251.549164 65.045334,251.539673 
	C64.523361,249.830093 63.960861,248.410904 63.733307,247.836777 
	C65.340782,244.946442 66.669579,242.557190 67.998375,240.167938 
z"/>
<path fill="#FF7E47" opacity="1.000000" stroke="none" 
	d="
M76.002014,162.833511 
	C63.958969,164.154968 53.705849,158.470749 50.740322,150.132248 
	C47.867630,142.054749 47.788345,133.599716 48.373619,124.982597 
	C49.032116,115.287437 48.427658,105.506660 48.376720,95.763107 
	C48.332573,87.318481 48.196243,78.872787 48.286118,70.429543 
	C48.351070,64.327477 48.891384,58.228687 48.893051,52.128349 
	C48.894161,48.056080 48.321411,43.983654 47.843315,39.135590 
	C42.437656,35.667011 33.475342,36.529419 30.040884,40.057327 
	C30.040884,40.057327 29.996809,40.005863 29.730175,40.064445 
	C28.980385,40.439507 28.497227,40.755985 28.014069,41.072468 
	C28.014071,41.072468 28.012289,41.018879 28.031349,41.037781 
	C24.103775,41.025360 25.544571,37.433010 24.187111,35.234161 
	C24.228741,34.464863 24.490408,34.006241 24.871284,33.312614 
	C26.060234,32.698673 27.129974,32.319736 28.805489,32.132904 
	C30.611387,31.875980 31.811512,31.426952 33.011639,30.977924 
	C39.359825,30.667187 45.708012,30.356447 52.519169,30.465050 
	C52.677120,34.655666 51.968685,38.446724 52.152420,42.194038 
	C52.516697,49.623672 53.313499,57.035618 54.112286,64.435364 
	C54.198868,65.237373 55.474121,65.911072 56.198006,66.644287 
	C56.766918,65.933281 57.779709,65.254601 57.834221,64.506119 
	C58.254883,58.730507 58.534515,52.943161 58.765774,47.155777 
	C58.902634,43.730854 54.116268,40.047836 59.315567,36.861343 
	C59.426750,36.793205 59.175831,36.241436 59.214497,35.930275 
	C59.457130,33.977997 59.734024,32.029972 59.999588,30.080544 
	C61.067295,30.073332 62.134998,30.066120 63.718166,30.418575 
	C66.397758,32.495358 65.013504,36.965256 69.489037,37.037689 
	C76.401619,37.149570 83.306557,37.917950 90.216911,37.950684 
	C115.291534,38.069466 140.367142,38.027073 165.442154,37.962940 
	C168.737869,37.954510 172.047546,37.137169 175.323517,37.287586 
	C179.233017,37.467091 183.113190,38.285645 186.541748,38.900078 
	C146.307709,38.979378 106.537971,38.988827 66.768242,38.989906 
	C59.720661,38.990097 59.726700,38.973782 59.986027,46.076900 
	C60.028496,47.240139 59.990891,48.406296 59.990810,49.571102 
	C59.988827,79.038895 60.075783,108.507164 59.916348,137.974106 
	C59.880867,144.532089 64.892258,151.221634 71.760620,151.340637 
	C70.698769,152.008530 69.872002,152.499847 68.778946,153.079254 
	C68.567139,153.715378 68.621628,154.263412 68.676109,154.811447 
	C70.125237,154.229767 71.574356,153.648087 73.269165,153.047409 
	C73.514862,153.028412 74.006119,152.988876 74.335953,152.998932 
	C75.105042,153.031479 75.544296,153.053970 76.146225,153.420364 
	C81.847015,154.791840 87.385124,155.819412 92.923241,156.846970 
	C88.318748,158.327881 83.770790,159.021118 79.320435,160.112381 
	C78.067230,160.419693 77.100273,161.894318 76.002014,162.833511 
z"/>
<path fill="#FF8049" opacity="1.000000" stroke="none" 
	d="
M15.029112,110.980186 
	C15.353748,109.052719 15.951332,107.126511 15.960190,105.197594 
	C16.036648,88.544037 15.814688,71.885887 16.170322,55.239544 
	C16.242004,51.884342 18.383675,48.573360 19.980839,44.092007 
	C21.304293,46.084961 21.782841,46.469280 21.783789,46.854774 
	C21.881569,86.595596 21.902866,126.336670 22.049906,166.077271 
	C22.072601,172.211639 22.983433,178.346817 22.927614,184.476578 
	C22.783791,200.270767 22.075438,216.062363 22.090305,231.854523 
	C22.099514,241.636810 20.106550,251.762558 26.117455,260.980347 
	C20.820801,260.930511 17.666000,258.252289 17.312887,253.733856 
	C17.029524,250.107910 17.009712,246.455261 17.007809,242.814392 
	C16.986650,202.345413 17.009899,161.876404 16.936438,121.407555 
	C16.932755,119.380066 16.152691,117.353989 15.365339,114.767731 
	C15.007405,113.132202 15.018259,112.056198 15.029112,110.980186 
z"/>
<path fill="#FF7E47" opacity="1.000000" stroke="none" 
	d="
M60.097618,262.961060 
	C59.293671,262.084076 58.426388,261.255798 57.703770,260.316254 
	C56.993977,259.393402 56.431137,258.357513 55.803825,257.371216 
	C54.896622,258.209045 53.165314,259.109619 53.223545,259.873901 
	C53.488857,263.356171 54.257236,266.800079 54.928261,270.613800 
	C47.650467,270.379120 40.269600,269.954407 32.940437,269.090912 
	C30.889919,268.849335 28.991804,267.314209 27.023781,266.372437 
	C27.104090,265.727722 27.184401,265.083008 27.264709,264.438293 
	C32.581852,264.283325 37.898994,264.128357 43.665756,263.963318 
	C47.455437,264.188904 48.852386,262.561310 49.047104,259.287384 
	C49.651711,249.121796 53.472393,244.646042 63.815540,241.554398 
	C65.014885,241.195892 66.125374,240.540146 67.637718,240.095078 
	C66.669579,242.557190 65.340782,244.946442 63.733307,247.836777 
	C63.960861,248.410904 64.523361,249.830093 64.719543,251.695419 
	C62.934692,255.748062 61.516159,259.354553 60.097618,262.961060 
z"/>
<path fill="#FE8E63" opacity="1.000000" stroke="none" 
	d="
M15.023422,110.513504 
	C15.018259,112.056198 15.007405,113.132202 15.009085,114.611725 
	C15.008715,130.022995 14.995811,145.030746 14.983829,160.503479 
	C14.664303,159.538773 14.066427,158.109528 14.064058,156.679321 
	C14.007751,122.687630 14.011439,88.695831 14.031630,54.704063 
	C14.032210,53.726364 14.331644,52.748844 14.717085,51.441177 
	C14.967537,70.756355 14.992635,90.401588 15.023422,110.513504 
z"/>
<path fill="#505252" opacity="1.000000" stroke="none" 
	d="
M345.090851,51.383877 
	C346.715179,51.091534 348.439270,51.081829 350.590820,51.132187 
	C349.075745,51.350334 347.133179,51.508423 345.090851,51.383877 
z"/>
<path fill="#000000" opacity="1.000000" stroke="none" 
	d="
M344.140747,246.403625 
	C344.056671,241.813400 343.921265,237.660431 344.083252,233.519073 
	C344.136017,232.168762 344.586090,230.419510 345.514374,229.602051 
	C347.606842,227.759399 356.016541,230.128586 358.229523,232.896454 
	C360.950012,236.299057 360.375458,243.086807 357.101929,246.218094 
	C353.977173,249.207062 347.146179,249.539337 344.140747,246.403625 
z"/>
<path fill="#FF814B" opacity="1.000000" stroke="none" 
	d="
M187.006058,38.827366 
	C183.113190,38.285645 179.233017,37.467091 175.323517,37.287586 
	C172.047546,37.137169 168.737869,37.954510 165.442154,37.962940 
	C140.367142,38.027073 115.291534,38.069466 90.216911,37.950684 
	C83.306557,37.917950 76.401619,37.149570 69.489037,37.037689 
	C65.013504,36.965256 66.397758,32.495358 64.118011,30.443253 
	C114.693062,30.088758 165.383713,30.069256 216.543335,30.084011 
	C217.008682,41.771496 216.954529,53.425152 217.053085,65.077515 
	C217.068817,66.938461 217.769318,68.793610 218.494324,70.826401 
	C218.880661,89.025055 218.925919,107.048744 218.574051,125.679268 
	C217.451843,128.894119 216.865463,131.551575 215.959442,134.095139 
	C215.183014,136.274857 214.367889,138.584625 212.961121,140.352432 
	C211.739929,141.887009 209.665802,142.742813 207.985138,143.470840 
	C208.001633,108.454025 208.001633,73.864960 208.001633,38.827366 
	C201.249832,38.827366 194.127945,38.827366 187.006058,38.827366 
M211.178619,136.395370 
	C211.424515,136.330917 211.692947,136.305511 211.905289,136.182922 
	C211.991211,136.133331 211.971527,135.871582 211.971497,135.706375 
	C211.968414,115.082893 211.974716,94.459373 211.917786,73.836029 
	C211.915222,72.906906 211.338531,71.979370 211.010712,70.107529 
	C211.010712,60.044491 211.010712,49.981453 211.010712,39.918415 
	C210.181549,40.244579 210.029587,40.556248 210.029526,40.867939 
	C210.024170,71.142715 210.017517,101.417511 210.075668,131.692184 
	C210.078415,133.122131 210.663300,134.550980 211.178619,136.395370 
z"/>
<path fill="#FE743A" opacity="1.000000" stroke="none" 
	d="
M208.601746,270.978455 
	C209.012604,270.969452 209.505356,270.971527 210.127289,270.978821 
	C211.500626,270.984741 212.252029,270.983368 213.003448,270.981995 
	C219.625168,271.151123 226.246902,271.320251 232.926147,271.768738 
	C223.971863,272.034149 214.960083,272.020111 205.481201,272.011292 
	C204.232468,271.957062 203.450851,271.897583 202.669220,271.838135 
	C202.662430,271.554565 202.655640,271.270996 202.648849,270.987427 
	C204.496201,270.987427 206.343536,270.987427 208.601746,270.978455 
z"/>
<path fill="#FF814B" opacity="1.000000" stroke="none" 
	d="
M59.562653,30.050993 
	C59.734024,32.029972 59.457130,33.977997 59.214497,35.930275 
	C59.175831,36.241436 59.426750,36.793205 59.315567,36.861343 
	C54.116268,40.047836 58.902634,43.730854 58.765774,47.155777 
	C58.534515,52.943161 58.254883,58.730507 57.834221,64.506119 
	C57.779709,65.254601 56.766918,65.933281 56.198006,66.644287 
	C55.474121,65.911072 54.198868,65.237373 54.112286,64.435364 
	C53.313499,57.035618 52.516697,49.623672 52.152420,42.194038 
	C51.968685,38.446724 52.677120,34.655666 52.986183,30.489532 
	C55.035389,30.070263 57.080551,30.045853 59.562653,30.050993 
z"/>
<path fill="#FE743A" opacity="1.000000" stroke="none" 
	d="
M32.650742,30.987701 
	C31.811512,31.426952 30.611387,31.875980 29.145992,32.105373 
	C30.017097,31.589653 31.153469,31.293564 32.650742,30.987701 
z"/>
<path fill="#FF7E49" opacity="1.000000" stroke="none" 
	d="
M213.110764,270.650513 
	C212.252029,270.983368 211.500626,270.984741 210.373657,270.977997 
	C212.368439,267.297028 208.698929,265.962555 207.499496,263.389496 
	C207.913681,260.665161 208.043533,258.333160 208.428070,255.920868 
	C209.778809,257.091766 210.874893,258.342987 212.821716,260.565399 
	C213.295212,257.148956 213.652512,254.570908 214.282242,252.120758 
	C215.310608,252.507095 216.066559,252.765533 216.822510,253.023972 
	C216.880188,253.451324 216.937881,253.878693 216.834198,254.849304 
	C217.057755,256.592041 217.442673,257.791534 217.827576,258.990997 
	C218.240875,263.026520 220.905121,263.516144 224.585602,263.098511 
	C223.333542,263.624451 221.685074,264.081238 220.017151,264.781036 
	C217.737839,266.789062 215.477966,268.554047 213.110764,270.650513 
z"/>
<path fill="#000000" opacity="1.000000" stroke="none" 
	d="
M386.492889,248.969772 
	C384.206390,247.822052 382.296936,246.679352 379.771332,245.167938 
	C384.781250,244.861816 389.121857,244.596588 394.318451,244.279053 
	C393.265381,245.882339 392.753937,246.660995 392.085754,247.716736 
	C390.242676,248.320801 388.556274,248.647797 386.492889,248.969772 
z"/>
<path fill="#000000" opacity="1.000000" stroke="none" 
	d="
M391.861145,239.577423 
	C388.624146,239.224930 384.556366,242.201752 382.083801,237.409790 
	C385.787201,235.727371 389.498993,234.425415 391.861145,239.577423 
z"/>
<path fill="#FF844D" opacity="1.000000" stroke="none" 
	d="
M76.423279,162.904922 
	C77.100273,161.894318 78.067230,160.419693 79.320435,160.112381 
	C83.770790,159.021118 88.318748,158.327881 92.923241,156.846970 
	C87.385124,155.819412 81.847015,154.791840 76.616142,153.395233 
	C117.616493,153.030762 158.309601,153.035339 198.922791,153.379868 
	C197.895859,155.812180 196.948853,157.904572 195.533051,159.998230 
	C161.953247,160.001114 128.841278,159.883041 95.732246,160.142426 
	C91.136093,160.178421 86.554527,162.076813 81.966209,163.113052 
	C80.258987,163.067490 78.551758,163.021912 76.423279,162.904922 
z"/>
<path fill="#FF8A58" opacity="1.000000" stroke="none" 
	d="
M82.210953,163.469070 
	C86.554527,162.076813 91.136093,160.178421 95.732246,160.142426 
	C128.841278,159.883041 161.953247,160.001114 195.898743,160.003723 
	C198.474960,160.613846 200.216736,161.219727 201.958511,161.825623 
	C200.002869,161.898056 198.046204,161.950150 196.091751,162.046692 
	C189.840958,162.355453 183.593140,162.893066 177.340240,162.956848 
	C162.799118,163.105179 148.254852,162.933868 133.713440,163.066833 
	C116.626640,163.223068 99.541542,163.564163 82.210953,163.469070 
z"/>
<path fill="#FF7E47" opacity="1.000000" stroke="none" 
	d="
M214.009827,251.992874 
	C213.652512,254.570908 213.295212,257.148956 212.821716,260.565399 
	C210.874893,258.342987 209.778809,257.091766 208.275970,255.601074 
	C205.249786,253.853531 202.630356,252.345428 199.840576,250.491989 
	C194.794952,249.772202 189.919662,249.397766 185.044373,249.023346 
	C179.107925,247.540039 183.136765,244.394745 184.353287,241.430786 
	C186.577103,241.076752 188.287994,241.095947 190.114563,241.409271 
	C191.486816,241.497040 192.743378,241.290649 194.400482,241.068787 
	C195.869781,241.037750 196.938553,241.022171 198.254364,241.215683 
	C199.333740,241.616318 200.166061,241.807861 201.290833,241.937119 
	C202.070221,241.547119 202.557175,241.219391 203.044128,240.891663 
	C204.104263,240.936722 205.164383,240.981781 206.864136,241.323639 
	C207.691132,241.741470 207.878510,241.862503 208.065903,241.983536 
	C208.155823,242.153519 208.245758,242.323502 207.955841,242.638687 
	C207.576019,242.783875 207.423950,242.848618 207.423950,242.848618 
	C207.423950,242.848618 207.791809,242.992142 207.791809,242.992142 
	C207.732086,242.760269 207.672363,242.528397 208.013992,242.591156 
	C209.426682,243.311172 210.438019,243.736526 211.449341,244.161896 
	C211.449341,244.161896 211.737976,244.246521 211.657547,244.742889 
	C212.054123,247.149216 212.531128,249.059204 213.145264,251.167053 
	C213.489243,251.614166 213.730286,251.824158 214.002930,251.997406 
	C214.000305,251.999908 214.009827,251.992874 214.009827,251.992874 
z"/>
<path fill="#FF7A3A" opacity="1.000000" stroke="none" 
	d="
M207.968628,143.898590 
	C209.665802,142.742813 211.739929,141.887009 212.961121,140.352432 
	C214.367889,138.584625 215.183014,136.274857 215.959442,134.095139 
	C216.865463,131.551575 217.451843,128.894119 218.504745,126.143433 
	C219.328659,135.795639 219.496292,145.664246 214.577484,154.493835 
	C213.043579,157.247284 209.470001,158.864487 206.235931,160.756592 
	C205.760544,158.340286 205.879364,156.169220 206.303192,153.980591 
	C207.122192,153.696579 207.636169,153.430145 208.150146,153.163696 
	C207.433670,152.775558 206.717194,152.387436 206.057983,151.683853 
	C206.137299,149.938385 206.159378,148.508362 206.172638,146.751831 
	C206.765427,145.583084 207.367020,144.740829 207.968628,143.898590 
M211.486786,145.162125 
	C211.486786,145.162125 211.579193,144.876846 211.579193,144.876846 
	C211.579193,144.876846 211.369583,145.057785 211.486786,145.162125 
z"/>
<path fill="#FD976E" opacity="1.000000" stroke="none" 
	d="
M189.998871,241.115143 
	C188.287994,241.095947 186.577103,241.076752 184.439392,241.078674 
	C148.566788,241.070786 113.121002,241.049896 77.675285,240.994110 
	C75.362511,240.990479 73.050171,240.719315 70.379333,240.372101 
	C107.055305,240.116089 144.089554,240.057877 181.123810,240.007965 
	C186.438553,240.000793 191.753357,240.033707 197.531326,240.322968 
	C197.994522,240.597855 198.007309,241.006592 198.007309,241.006592 
	C196.938553,241.022171 195.869781,241.037750 194.000748,241.044830 
	C192.133270,241.062592 191.066071,241.088867 189.998871,241.115143 
z"/>
<path fill="#FF814B" opacity="1.000000" stroke="none" 
	d="
M206.181458,147.078339 
	C206.159378,148.508362 206.137299,149.938385 206.057617,151.684204 
	C206.000000,152.000000 205.999298,152.001022 205.745850,152.064896 
	C205.662216,152.753159 205.832016,153.377563 206.000916,154.000977 
	C206.000000,154.000000 205.998169,153.998169 205.998169,153.998169 
	C205.879364,156.169220 205.760544,158.340286 205.865509,160.782562 
	C204.963120,161.358994 203.836975,161.664185 202.334686,161.897491 
	C200.216736,161.219727 198.474960,160.613846 196.367508,160.002441 
	C196.948853,157.904572 197.895859,155.812180 199.174500,153.351486 
	C199.786118,152.722504 200.066086,152.461823 200.346069,152.201157 
	C200.186447,152.156601 200.029434,152.095551 199.866821,152.070023 
	C197.928619,151.765564 195.989594,151.466385 194.479980,151.090866 
	C199.164886,151.129837 203.489761,151.441757 206.181458,147.078339 
z"/>
<path fill="#FE743A" opacity="1.000000" stroke="none" 
	d="
M30.467007,40.022423 
	C33.475342,36.529419 42.437656,35.667011 47.817101,38.727547 
	C42.266407,39.392654 36.579765,39.690086 30.467007,40.022423 
z"/>
<path fill="#FE743A" opacity="1.000000" stroke="none" 
	d="
M213.008118,250.969193 
	C212.531128,249.059204 212.054123,247.149216 211.704620,244.885712 
	C213.479645,247.128632 215.127151,249.725067 216.798584,252.672729 
	C216.066559,252.765533 215.310608,252.507095 214.282257,252.120758 
	C214.009827,251.992874 214.000305,251.999908 213.863739,251.801575 
	C213.519272,251.355896 213.279572,251.144531 213.008118,250.969193 
z"/>
<path fill="#FE743A" opacity="1.000000" stroke="none" 
	d="
M217.901199,258.624878 
	C217.442673,257.791534 217.057755,256.592041 216.881042,255.170471 
	C217.384460,256.051819 217.679642,257.155304 217.901199,258.624878 
z"/>
<path fill="#FE743A" opacity="1.000000" stroke="none" 
	d="
M211.256409,243.901123 
	C210.438019,243.736526 209.426682,243.311172 208.360092,242.495148 
	C209.224380,242.616440 210.143921,243.128403 211.256409,243.901123 
z"/>
<path fill="#FF7E49" opacity="1.000000" stroke="none" 
	d="
M202.886368,240.584030 
	C202.557175,241.219391 202.070221,241.547119 201.178192,241.704193 
	C200.521851,241.081177 200.270584,240.628815 200.019333,240.176437 
	C200.922424,240.209763 201.825516,240.243073 202.886368,240.584030 
z"/>
<path fill="#FF854A" opacity="1.000000" stroke="none" 
	d="
M199.683990,240.105698 
	C200.270584,240.628815 200.521851,241.081177 200.885757,241.766479 
	C200.166061,241.807861 199.333740,241.616318 198.254364,241.215683 
	C198.007309,241.006592 197.994522,240.597855 197.994995,240.393372 
	C198.446518,240.137589 198.897583,240.086273 199.683990,240.105698 
z"/>
<path fill="#FE743A" opacity="1.000000" stroke="none" 
	d="
M28.327070,41.030319 
	C28.497227,40.755985 28.980385,40.439507 29.756947,40.084389 
	C29.580259,40.359890 29.110167,40.674030 28.327070,41.030319 
z"/>
<path fill="#FE743A" opacity="1.000000" stroke="none" 
	d="
M207.809219,242.950348 
	C207.791809,242.992142 207.423950,242.848618 207.423950,242.848618 
	C207.423950,242.848618 207.576019,242.783875 207.720215,242.805084 
	C207.864426,242.826309 207.826630,242.908569 207.809219,242.950348 
z"/>
<path fill="#FF7E49" opacity="1.000000" stroke="none" 
	d="
M208.032761,241.781372 
	C207.878510,241.862503 207.691132,241.741470 207.255844,241.395752 
	C207.338501,241.307098 207.669067,241.443161 208.032761,241.781372 
z"/>
<path fill="#000000" opacity="1.000000" stroke="none" 
	d="
M60.549973,262.980621 
	C61.516159,259.354553 62.934692,255.748062 64.679016,251.985809 
	C67.396408,251.549164 69.788010,251.268280 73.057266,250.979584 
	C105.619560,250.928696 137.304199,250.885620 169.422272,250.917603 
	C170.570068,251.740494 171.846725,252.450455 171.900116,253.242828 
	C172.115921,256.446136 171.954895,259.674835 171.932953,262.894165 
	C169.242905,262.935760 166.552856,262.977356 162.956375,263.023376 
	C131.707611,263.074158 101.365265,263.120514 71.022926,263.166870 
	C67.682724,263.111298 64.342522,263.055725 60.549973,262.980621 
z"/>
<path fill="#000000" opacity="1.000000" stroke="none" 
	d="
M200.010925,250.837341 
	C202.630356,252.345428 205.249786,253.853531 208.021301,255.681396 
	C208.043533,258.333160 207.913681,260.665161 207.390732,263.081879 
	C203.038742,263.110352 199.079941,263.045197 195.120911,263.001373 
	C192.977585,262.977631 190.799789,263.223755 188.700317,262.917633 
	C186.778976,262.637482 183.299545,261.669189 183.331192,261.191284 
	C183.557999,257.767792 180.846237,253.624130 186.065109,250.984726 
	C191.288223,250.927734 195.649582,250.882538 200.010925,250.837341 
z"/>
<path fill="#FFA462" opacity="1.000000" stroke="none" 
	d="
M168.988831,250.842560 
	C137.304199,250.885620 105.619560,250.928696 73.470734,250.903244 
	C74.901970,250.220932 76.795433,249.079391 78.693138,249.072327 
	C108.477798,248.961182 138.263000,248.996216 168.520813,249.307007 
	C168.991959,250.025101 168.990402,250.433838 168.988831,250.842560 
z"/>
<path fill="#FF985B" opacity="1.000000" stroke="none" 
	d="
M71.381805,263.364288 
	C101.365265,263.120514 131.707611,263.074158 162.512421,263.097351 
	C161.527802,263.443542 160.081131,263.959015 158.633575,263.961548 
	C130.817429,264.009827 103.001183,264.003082 75.184982,263.979889 
	C74.036766,263.978943 72.888779,263.707245 71.381805,263.364288 
z"/>
<path fill="#FE8E63" opacity="1.000000" stroke="none" 
	d="
M169.422272,250.917603 
	C168.990402,250.433838 168.991959,250.025101 168.988419,249.309937 
	C172.304276,248.705124 174.025726,250.417618 173.854797,253.553589 
	C173.680740,256.746857 172.963165,259.910522 172.208252,262.990662 
	C171.954895,259.674835 172.115921,256.446136 171.900116,253.242828 
	C171.846725,252.450455 170.570068,251.740494 169.422272,250.917603 
z"/>
<path fill="#FF985B" opacity="1.000000" stroke="none" 
	d="
M199.840576,250.491989 
	C195.649582,250.882538 191.288223,250.927734 186.468643,250.900452 
	C185.758621,250.381287 185.506836,249.934616 185.149719,249.255646 
	C189.919662,249.397766 194.794952,249.772202 199.840576,250.491989 
z"/>
<path fill="#000000" opacity="1.000000" stroke="none" 
	d="
M206.172638,146.751831 
	C203.489761,151.441757 199.164886,151.129837 194.009995,151.021606 
	C163.732285,151.069641 134.353760,151.112000 104.513901,151.081863 
	C96.366104,151.066727 88.679642,151.124084 80.667480,151.106247 
	C79.901756,151.081024 79.461746,151.130997 78.622459,151.109726 
	C77.146172,151.085999 76.069160,151.133499 74.752312,151.114716 
	C74.512482,151.048416 74.031532,151.176315 73.694572,151.105377 
	C72.903648,151.077637 72.449677,151.120834 71.995712,151.164047 
	C64.892258,151.221634 59.880867,144.532089 59.916348,137.974106 
	C60.075783,108.507164 59.988827,79.038895 59.990810,49.571102 
	C59.990891,48.406296 60.028496,47.240139 59.986027,46.076900 
	C59.726700,38.973782 59.720661,38.990097 66.768242,38.989906 
	C106.537971,38.988827 146.307709,38.979378 186.541748,38.900078 
	C194.127945,38.827366 201.249832,38.827366 208.001633,38.827366 
	C208.001633,73.864960 208.001633,108.454025 207.985138,143.470840 
	C207.367020,144.740829 206.765427,145.583084 206.172638,146.751831 
M79.939247,93.700981 
	C79.939247,93.700981 79.931152,93.901840 79.257889,94.291054 
	C78.898483,100.064781 80.688538,101.780693 85.779442,99.861557 
	C89.270676,98.545448 91.905464,99.085106 94.835831,101.210663 
	C99.107071,104.308815 104.242760,104.698257 108.326057,101.654114 
	C112.842110,98.287323 116.465225,98.833755 120.871910,101.316032 
	C125.607651,103.983688 130.369934,104.077209 135.079514,100.550270 
	C138.000031,98.363144 141.078262,98.325775 144.561462,100.663574 
	C149.415176,103.921173 154.856766,104.438469 160.121521,100.967865 
	C163.742950,98.580559 167.094955,98.267685 170.876617,101.192932 
	C175.166153,104.511040 183.421982,103.556602 187.296814,99.896721 
	C190.064316,97.282715 189.409271,93.456223 185.141083,92.047699 
	C181.380753,91.839592 177.282791,92.510216 173.936508,91.224495 
	C168.445801,89.114830 163.558899,89.206352 158.154465,91.232903 
	C155.357162,92.281845 152.020142,91.891479 148.579697,92.005074 
	C148.579697,92.005074 148.202911,91.999863 147.807877,91.332062 
	C142.563919,88.238243 137.255737,88.529465 132.157822,91.470734 
	C128.783203,93.417732 125.716003,93.547668 122.613449,91.224876 
	C118.281898,87.981949 113.337273,88.232384 109.208542,90.554520 
	C104.522675,93.190025 100.471985,93.439011 96.009850,90.959404 
	C96.009850,90.959404 96.112663,90.950653 95.713348,90.265579 
	C91.160408,88.818939 86.664619,87.801712 82.392982,92.012238 
	C82.392982,92.012238 81.953552,92.173950 81.471962,92.116013 
	C81.143265,92.470100 80.814568,92.824188 80.185867,93.300095 
	C80.185867,93.300095 80.122147,93.617569 79.939247,93.700981 
M82.743767,114.394096 
	C82.743767,114.394096 82.281830,114.407921 81.762596,114.801895 
	C80.814987,116.227760 79.867386,117.653625 79.002769,119.835152 
	C80.830887,122.782936 82.994980,123.525070 86.498192,122.168793 
	C88.586517,121.360291 91.792923,121.419968 93.691368,122.502144 
	C100.665329,126.477516 106.942780,125.719757 113.884521,121.001839 
	C116.453255,121.942513 118.965057,123.422363 121.603699,123.700981 
	C125.852348,124.149582 131.014069,125.278084 134.280045,123.438507 
	C138.762375,120.913811 141.872147,121.069649 145.927139,123.357277 
	C150.868774,126.145096 156.146530,126.055862 160.848145,122.906685 
	C164.388138,120.535583 167.154572,120.752167 170.667572,122.978088 
	C175.773453,126.213310 181.422241,126.096230 186.329910,122.633408 
	C187.848450,121.561935 188.997696,118.069489 188.384155,116.392143 
	C187.733002,114.612045 185.190277,112.896667 182.237350,114.983788 
	C180.968552,115.880569 178.340683,115.912666 176.832977,115.228996 
	C170.507034,112.360489 164.315659,112.272675 157.784988,114.479301 
	C155.365097,115.296936 152.559814,114.974014 149.414536,114.942680 
	C148.954102,114.684738 148.493652,114.426788 147.579803,114.005859 
	C147.579803,114.005859 147.101242,113.949837 146.818756,113.369835 
	C146.200897,113.204514 145.583054,113.039192 144.999924,112.988365 
	C144.999924,112.988365 145.114258,112.953125 144.658783,112.235733 
	C142.716614,112.151535 140.704285,111.701012 138.846390,112.056808 
	C134.528107,112.883781 130.284302,114.099663 125.224197,114.993195 
	C122.287224,114.327888 119.377800,113.293594 116.407707,113.071861 
	C109.623444,112.565384 103.078377,118.237907 95.699898,113.261429 
	C91.659851,111.625877 87.665359,110.751091 83.997200,113.998016 
	C83.997200,113.998016 84.027863,113.916656 83.416695,114.025848 
	C83.201782,114.302361 82.986870,114.578873 82.743767,114.394096 
M98.001244,79.014671 
	C98.001244,79.014671 97.943764,79.041504 98.367302,79.760132 
	C103.418121,80.291664 108.321053,80.277550 112.011398,76.030670 
	C112.011398,76.030670 112.004967,76.100388 112.816513,76.013840 
	C115.886200,77.014000 118.941170,78.062469 122.028938,79.003296 
	C127.015854,80.522812 131.914429,81.191353 136.556656,76.969551 
	C136.556656,76.969551 136.974838,76.827202 137.727524,76.962585 
	C140.499954,77.250084 143.272385,77.537582 146.734650,78.193596 
	C151.198730,80.967003 155.714417,80.757103 160.194321,78.302956 
	C163.438171,76.525940 166.278442,75.751198 170.096664,77.782524 
	C173.217209,79.442657 177.400620,80.146606 180.912903,79.700516 
	C183.745667,79.340736 187.104935,77.153519 188.622864,74.758194 
	C189.470627,73.420364 187.040314,70.005219 186.087173,67.526161 
	C185.613205,68.179123 185.139236,68.832092 184.665253,69.485062 
	C180.809799,69.306526 176.954361,69.127998 172.745346,68.289703 
	C168.132050,65.000511 163.466812,65.604286 158.734909,68.037994 
	C157.186096,68.834579 155.547363,69.456345 153.186142,70.012268 
	C151.474762,69.645065 149.763382,69.277855 147.699448,68.261497 
	C142.769806,65.202301 137.973709,65.303673 132.998703,68.396690 
	C131.290573,69.458641 129.012329,69.603615 126.259071,70.015938 
	C124.857040,69.647575 123.455002,69.279213 121.706772,68.261681 
	C117.094002,64.984596 112.599236,65.586151 107.996162,68.426819 
	C106.525948,69.334122 104.663300,69.605492 102.222809,70.015289 
	C100.521233,69.663361 98.819656,69.311432 96.760620,68.297989 
	C92.004547,65.679237 87.311935,64.421852 82.959106,68.951218 
	C82.959106,68.951218 82.945778,68.881828 82.200951,69.000221 
	C78.645500,70.226509 78.736847,73.032463 79.323570,76.714821 
	C80.997902,77.103958 83.376190,78.392822 84.225883,77.728012 
	C88.105049,74.692886 91.439011,76.948151 94.980835,78.025887 
	C94.980835,78.025887 94.913101,78.052628 95.227318,78.685303 
	C96.152458,78.816231 97.077599,78.947159 98.001244,79.014671 
z"/>
<path fill="#FE9A73" opacity="1.000000" stroke="none" 
	d="
M79.021729,151.180969 
	C79.461746,151.130997 79.901756,151.081024 81.026947,151.310272 
	C89.466492,151.444443 97.220863,151.299393 104.975235,151.154358 
	C134.353760,151.112000 163.732285,151.069641 193.580795,151.096558 
	C195.989594,151.466385 197.928619,151.765564 199.866821,152.070023 
	C200.029434,152.095551 200.186447,152.156601 200.346069,152.201157 
	C200.066086,152.461823 199.786118,152.722504 199.254425,153.011551 
	C158.309601,153.035339 117.616493,153.030762 76.453461,153.051315 
	C75.544296,153.053970 75.105042,153.031479 74.336563,152.696960 
	C74.015388,151.982040 74.023460,151.579178 74.031532,151.176315 
	C74.031532,151.176315 74.512482,151.048416 75.008888,151.296524 
	C76.677437,151.423401 77.849586,151.302185 79.021729,151.180969 
z"/>
<path fill="#FF844D" opacity="1.000000" stroke="none" 
	d="
M73.023476,153.066406 
	C71.574356,153.648087 70.125237,154.229767 68.676109,154.811447 
	C68.621628,154.263412 68.567139,153.715378 69.175163,153.080536 
	C70.899612,153.017975 71.961540,153.042191 73.023476,153.066406 
z"/>
<path fill="#FE8E63" opacity="1.000000" stroke="none" 
	d="
M73.269165,153.047409 
	C71.961540,153.042191 70.899612,153.017975 69.441452,152.992462 
	C69.872002,152.499847 70.698769,152.008530 71.760620,151.340637 
	C72.449677,151.120834 72.903648,151.077637 73.694572,151.105377 
	C74.023460,151.579178 74.015388,151.982040 74.006721,152.686890 
	C74.006119,152.988876 73.514862,153.028412 73.269165,153.047409 
z"/>
<path fill="#FF8C5E" opacity="1.000000" stroke="none" 
	d="
M210.977066,135.980331 
	C210.663300,134.550980 210.078415,133.122131 210.075668,131.692184 
	C210.017517,101.417511 210.024170,71.142715 210.029526,40.867939 
	C210.029587,40.556248 210.181549,40.244579 211.010712,39.918415 
	C211.010712,49.981453 211.010712,60.044491 211.015900,71.041931 
	C211.006409,93.310997 210.991730,114.645660 210.977066,135.980331 
z"/>
<path fill="#FF7A3A" opacity="1.000000" stroke="none" 
	d="
M211.077850,136.187851 
	C210.991730,114.645660 211.006409,93.310997 211.025177,71.513702 
	C211.338531,71.979370 211.915222,72.906906 211.917786,73.836029 
	C211.974716,94.459373 211.968414,115.082893 211.971497,135.706375 
	C211.971527,135.871582 211.991211,136.133331 211.905289,136.182922 
	C211.692947,136.305511 211.424515,136.330917 211.077850,136.187851 
z"/>
<path fill="#FF854A" opacity="1.000000" stroke="none" 
	d="
M190.114563,241.409286 
	C191.066071,241.088867 192.133270,241.062592 193.600204,241.060287 
	C192.743378,241.290649 191.486816,241.497040 190.114563,241.409286 
z"/>
<path fill="#FF7E49" opacity="1.000000" stroke="none" 
	d="
M213.145264,251.167053 
	C213.279572,251.144531 213.519272,251.355896 213.866364,251.799072 
	C213.730286,251.824158 213.489243,251.614166 213.145264,251.167053 
z"/>
<path fill="#FF814B" opacity="1.000000" stroke="none" 
	d="
M206.000366,151.999649 
	C206.717194,152.387436 207.433670,152.775558 208.150146,153.163696 
	C207.636169,153.430145 207.122192,153.696579 206.303192,153.980591 
	C205.998169,153.998169 206.000000,154.000000 206.002045,153.667450 
	C206.002487,152.890274 206.000900,152.445648 205.999298,152.001022 
	C205.999298,152.001022 206.000000,152.000000 206.000366,151.999649 
z"/>
<path fill="#FF814B" opacity="1.000000" stroke="none" 
	d="
M211.428192,145.109955 
	C211.369583,145.057785 211.579193,144.876846 211.579193,144.876846 
	C211.579193,144.876846 211.486786,145.162125 211.428192,145.109955 
z"/>
<path fill="#FF7A3A" opacity="1.000000" stroke="none" 
	d="
M205.745850,152.064896 
	C206.000900,152.445648 206.002487,152.890274 206.002960,153.668427 
	C205.832016,153.377563 205.662216,152.753159 205.745850,152.064896 
z"/>
<path fill="#FF7C3C" opacity="1.000000" stroke="none" 
	d="
M148.202911,91.999863 
	C148.202911,91.999863 148.579697,92.005074 148.887543,92.403137 
	C152.411835,96.769630 155.940811,94.488434 159.004044,92.887680 
	C164.247513,90.147606 169.325943,90.405777 174.149597,93.220474 
	C178.554916,95.791084 182.228622,94.702789 185.975952,92.181023 
	C189.409271,93.456223 190.064316,97.282715 187.296814,99.896721 
	C183.421982,103.556602 175.166153,104.511040 170.876617,101.192932 
	C167.094955,98.267685 163.742950,98.580559 160.121521,100.967865 
	C154.856766,104.438469 149.415176,103.921173 144.561462,100.663574 
	C141.078262,98.325775 138.000031,98.363144 135.079514,100.550270 
	C130.369934,104.077209 125.607651,103.983688 120.871910,101.316032 
	C116.465225,98.833755 112.842110,98.287323 108.326057,101.654114 
	C104.242760,104.698257 99.107071,104.308815 94.835831,101.210663 
	C91.905464,99.085106 89.270676,98.545448 85.779442,99.861557 
	C80.688538,101.780693 78.898483,100.064781 79.693481,94.160339 
	C80.129066,94.029625 80.311256,93.904800 80.311256,93.904800 
	C80.311256,93.904800 80.122147,93.617569 80.122147,93.617569 
	C80.122147,93.617569 80.185867,93.300095 80.592453,93.280701 
	C81.317207,92.898865 81.635384,92.536407 81.953552,92.173950 
	C81.953552,92.173950 82.392982,92.012238 83.045532,91.928741 
	C87.836281,91.547050 91.974472,91.248848 96.112663,90.950653 
	C96.112663,90.950653 96.009850,90.959404 96.176483,91.220207 
	C99.462761,94.470612 102.905174,96.136925 107.014503,93.506142 
	C112.709816,89.859985 118.264824,90.742088 124.027489,93.397697 
	C125.823021,94.225136 128.655838,95.059753 129.992279,94.235268 
	C135.843140,90.625725 141.904404,90.821144 148.202911,91.999863 
z"/>
<path fill="#FF7E40" opacity="1.000000" stroke="none" 
	d="
M147.101242,113.949837 
	C147.101242,113.949837 147.579803,114.005859 147.867081,114.316956 
	C148.746338,114.809128 149.338318,114.990189 149.930298,115.171249 
	C152.559814,114.974014 155.365097,115.296936 157.784988,114.479301 
	C164.315659,112.272675 170.507034,112.360489 176.832977,115.228996 
	C178.340683,115.912666 180.968552,115.880569 182.237350,114.983788 
	C185.190277,112.896667 187.733002,114.612045 188.384155,116.392143 
	C188.997696,118.069489 187.848450,121.561935 186.329910,122.633408 
	C181.422241,126.096230 175.773453,126.213310 170.667572,122.978088 
	C167.154572,120.752167 164.388138,120.535583 160.848145,122.906685 
	C156.146530,126.055862 150.868774,126.145096 145.927139,123.357277 
	C141.872147,121.069649 138.762375,120.913811 134.280045,123.438507 
	C131.014069,125.278084 125.852348,124.149582 121.603699,123.700981 
	C118.965057,123.422363 116.453255,121.942513 113.068909,121.014526 
	C109.667542,121.559364 107.073479,122.054398 104.497658,122.630890 
	C97.758232,124.139206 92.372177,120.075653 92.307121,113.244858 
	C93.793106,113.543785 94.941193,113.743156 96.089279,113.942528 
	C103.078377,118.237907 109.623444,112.565384 116.407707,113.071861 
	C119.377800,113.293594 122.287224,114.327888 125.552452,115.353745 
	C127.858635,115.829903 129.904221,116.324181 131.800934,115.985275 
	C136.276413,115.185593 140.681000,113.989120 145.114258,112.953125 
	C145.114258,112.953125 144.999924,112.988365 145.207611,113.141556 
	C145.977280,113.513100 146.539261,113.731468 147.101242,113.949837 
z"/>
<path fill="#FF7E3F" opacity="1.000000" stroke="none" 
	d="
M136.974838,76.827202 
	C136.974838,76.827202 136.556656,76.969551 135.912598,77.015091 
	C129.544998,78.461266 124.077202,78.481926 118.587723,75.586182 
	C116.941872,74.717979 114.229004,75.872528 112.004967,76.100388 
	C112.004967,76.100388 112.011398,76.030670 111.650162,76.044228 
	C106.840538,77.052361 102.392151,78.046928 97.943764,79.041504 
	C97.943764,79.041504 98.001244,79.014671 97.757660,78.811417 
	C96.647087,78.422981 95.780090,78.237801 94.913101,78.052628 
	C94.913101,78.052628 94.980835,78.025887 94.903137,77.700043 
	C93.321724,74.024384 90.494614,73.599724 87.460899,74.423943 
	C84.162605,75.320045 82.809143,74.250443 82.993607,70.597618 
	C82.977539,69.796967 82.961662,69.339394 82.945778,68.881828 
	C82.945778,68.881828 82.959106,68.951218 83.341034,68.972763 
	C88.188004,68.982712 92.653046,68.971100 97.118080,68.959496 
	C98.819656,69.311432 100.521233,69.663361 102.398056,70.252136 
	C102.282913,70.649651 101.929543,70.754570 101.722237,70.988785 
	C101.559227,71.172943 101.576530,71.516716 101.408615,72.246353 
	C108.434074,71.342216 114.633438,65.775513 122.052971,68.910851 
	C123.455002,69.279213 124.857040,69.647575 126.463623,70.280594 
	C126.562515,70.672783 126.435295,70.788528 126.357285,70.931190 
	C126.279785,71.072929 126.251762,71.241730 126.202042,71.398659 
	C127.764427,71.425476 129.668564,72.046440 130.830948,71.377831 
	C136.305527,68.228844 142.012573,67.638618 148.052002,68.910652 
	C149.763382,69.277855 151.474762,69.645065 153.367767,70.246094 
	C153.259460,70.642410 152.908798,70.750420 152.698715,70.984558 
	C152.529129,71.173561 152.529129,71.514732 152.234924,72.584915 
	C159.235825,70.102974 165.766602,66.613129 173.098907,68.949463 
	C176.954361,69.127998 180.809799,69.306526 184.665253,69.485062 
	C185.139236,68.832092 185.613205,68.179123 186.087173,67.526161 
	C187.040314,70.005219 189.470627,73.420364 188.622864,74.758194 
	C187.104935,77.153519 183.745667,79.340736 180.912903,79.700516 
	C177.400620,80.146606 173.217209,79.442657 170.096664,77.782524 
	C166.278442,75.751198 163.438171,76.525940 160.194321,78.302956 
	C155.714417,80.757103 151.198730,80.967003 146.253220,77.680054 
	C142.938110,74.496193 140.030396,73.745209 136.974838,76.827202 
z"/>
<path fill="#FE743A" opacity="1.000000" stroke="none" 
	d="
M91.969223,113.145279 
	C92.372177,120.075653 97.758232,124.139206 104.497658,122.630890 
	C107.073479,122.054398 109.667542,121.559364 112.675537,121.038918 
	C106.942780,125.719757 100.665329,126.477516 93.691368,122.502144 
	C91.792923,121.419968 88.586517,121.360291 86.498192,122.168793 
	C82.994980,123.525070 80.830887,122.782936 79.287758,119.355019 
	C80.475769,117.385895 81.378799,115.896904 82.281830,114.407921 
	C82.281830,114.407921 82.743767,114.394096 82.978065,114.479004 
	C83.484200,114.348160 83.756027,114.132408 84.027863,113.916656 
	C84.027863,113.916656 83.997200,113.998016 84.366150,113.993423 
	C87.146477,113.707642 89.557854,113.426460 91.969223,113.145279 
z"/>
<path fill="#FE8E63" opacity="1.000000" stroke="none" 
	d="
M148.005402,91.665962 
	C141.904404,90.821144 135.843140,90.625725 129.992279,94.235268 
	C128.655838,95.059753 125.823021,94.225136 124.027489,93.397697 
	C118.264824,90.742088 112.709816,89.859985 107.014503,93.506142 
	C102.905174,96.136925 99.462761,94.470612 96.173065,91.168732 
	C100.471985,93.439011 104.522675,93.190025 109.208542,90.554520 
	C113.337273,88.232384 118.281898,87.981949 122.613449,91.224876 
	C125.716003,93.547668 128.783203,93.417732 132.157822,91.470734 
	C137.255737,88.529465 142.563919,88.238243 148.005402,91.665962 
z"/>
<path fill="#FE8E63" opacity="1.000000" stroke="none" 
	d="
M185.558517,92.114365 
	C182.228622,94.702789 178.554916,95.791084 174.149597,93.220474 
	C169.325943,90.405777 164.247513,90.147606 159.004044,92.887680 
	C155.940811,94.488434 152.411835,96.769630 149.061172,92.476280 
	C152.020142,91.891479 155.357162,92.281845 158.154465,91.232903 
	C163.558899,89.206352 168.445801,89.114830 173.936508,91.224495 
	C177.282791,92.510216 181.380753,91.839592 185.558517,92.114365 
z"/>
<path fill="#FF712B" opacity="1.000000" stroke="none" 
	d="
M112.410736,76.057114 
	C114.229004,75.872528 116.941872,74.717979 118.587723,75.586182 
	C124.077202,78.481926 129.544998,78.461266 135.693695,77.044502 
	C131.914429,81.191353 127.015854,80.522812 122.028938,79.003296 
	C118.941170,78.062469 115.886200,77.014000 112.410736,76.057114 
z"/>
<path fill="#FD976E" opacity="1.000000" stroke="none" 
	d="
M147.875732,68.586075 
	C142.012573,67.638618 136.305527,68.228844 130.830948,71.377831 
	C129.668564,72.046440 127.764427,71.425476 126.202042,71.398659 
	C126.251762,71.241730 126.279785,71.072929 126.357285,70.931190 
	C126.435295,70.788528 126.562515,70.672783 126.831367,70.356377 
	C129.012329,69.603615 131.290573,69.458641 132.998703,68.396690 
	C137.973709,65.303673 142.769806,65.202301 147.875732,68.586075 
z"/>
<path fill="#FF712B" opacity="1.000000" stroke="none" 
	d="
M82.993790,70.940704 
	C82.809143,74.250443 84.162605,75.320045 87.460899,74.423943 
	C90.494614,73.599724 93.321724,74.024384 94.889305,77.733719 
	C91.439011,76.948151 88.105049,74.692886 84.225883,77.728012 
	C83.376190,78.392822 80.997902,77.103958 79.556778,76.241837 
	C80.857918,74.159462 81.925850,72.550087 82.993790,70.940704 
z"/>
<path fill="#FE8E63" opacity="1.000000" stroke="none" 
	d="
M172.922119,68.619583 
	C165.766602,66.613129 159.235825,70.102974 152.234924,72.584915 
	C152.529129,71.514732 152.529129,71.173561 152.698715,70.984558 
	C152.908798,70.750420 153.259460,70.642410 153.749573,70.318985 
	C155.547363,69.456345 157.186096,68.834579 158.734909,68.037994 
	C163.466812,65.604286 168.132050,65.000511 172.922119,68.619583 
z"/>
<path fill="#FD976E" opacity="1.000000" stroke="none" 
	d="
M121.879868,68.586266 
	C114.633438,65.775513 108.434074,71.342216 101.408615,72.246353 
	C101.576530,71.516716 101.559227,71.172943 101.722237,70.988785 
	C101.929543,70.754570 102.282913,70.649651 102.776764,70.328415 
	C104.663300,69.605492 106.525948,69.334122 107.996162,68.426819 
	C112.599236,65.586151 117.094002,64.984596 121.879868,68.586266 
z"/>
<path fill="#FD976E" opacity="1.000000" stroke="none" 
	d="
M144.886520,112.594437 
	C140.681000,113.989120 136.276413,115.185593 131.800934,115.985275 
	C129.904221,116.324181 127.858635,115.829903 125.945511,115.436111 
	C130.284302,114.099663 134.528107,112.883781 138.846390,112.056808 
	C140.704285,111.701012 142.716614,112.151535 144.886520,112.594437 
z"/>
<path fill="#FE8E63" opacity="1.000000" stroke="none" 
	d="
M96.939346,68.628738 
	C92.653046,68.971100 88.188004,68.982712 83.305862,68.969475 
	C87.311935,64.421852 92.004547,65.679237 96.939346,68.628738 
z"/>
<path fill="#FE8E63" opacity="1.000000" stroke="none" 
	d="
M104.513901,151.081863 
	C97.220863,151.299393 89.466492,151.444443 81.352646,151.385468 
	C88.679642,151.124084 96.366104,151.066727 104.513901,151.081863 
z"/>
<path fill="#FF712B" opacity="1.000000" stroke="none" 
	d="
M98.155533,79.400818 
	C102.392151,78.046928 106.840538,77.052361 111.684578,76.050629 
	C108.321053,80.277550 103.418121,80.291664 98.155533,79.400818 
z"/>
<path fill="#FE8E63" opacity="1.000000" stroke="none" 
	d="
M95.913010,90.608109 
	C91.974472,91.248848 87.836281,91.547050 83.278969,91.910797 
	C86.664619,87.801712 91.160408,88.818939 95.913010,90.608109 
z"/>
<path fill="#FE8E63" opacity="1.000000" stroke="none" 
	d="
M82.993607,70.597618 
	C81.925850,72.550087 80.857918,74.159462 79.481979,75.878525 
	C78.736847,73.032463 78.645500,70.226509 82.573364,68.941025 
	C82.961662,69.339394 82.977539,69.796967 82.993607,70.597618 
z"/>
<path fill="#FE8E63" opacity="1.000000" stroke="none" 
	d="
M92.307121,113.244850 
	C89.557854,113.426460 87.146477,113.707642 84.325500,113.978012 
	C87.665359,110.751091 91.659851,111.625877 95.894592,113.601974 
	C94.941193,113.743156 93.793106,113.543785 92.307121,113.244850 
z"/>
<path fill="#FF712B" opacity="1.000000" stroke="none" 
	d="
M137.351181,76.894897 
	C140.030396,73.745209 142.938110,74.496193 145.908295,77.495796 
	C143.272385,77.537582 140.499954,77.250084 137.351181,76.894897 
z"/>
<path fill="#FE8E63" opacity="1.000000" stroke="none" 
	d="
M82.022217,114.604904 
	C81.378799,115.896904 80.475769,117.385895 79.246262,118.977188 
	C79.867386,117.653625 80.814987,116.227760 82.022217,114.604904 
z"/>
<path fill="#FE8E63" opacity="1.000000" stroke="none" 
	d="
M78.622459,151.109726 
	C77.849586,151.302185 76.677437,151.423401 75.248718,151.362823 
	C76.069160,151.133499 77.146172,151.085999 78.622459,151.109726 
z"/>
<path fill="#FF712B" opacity="1.000000" stroke="none" 
	d="
M95.070206,78.368965 
	C95.780090,78.237801 96.647087,78.422981 97.758408,78.843124 
	C97.077599,78.947159 96.152458,78.816231 95.070206,78.368965 
z"/>
<path fill="#FD976E" opacity="1.000000" stroke="none" 
	d="
M149.672424,115.056961 
	C149.338318,114.990189 148.746338,114.809128 148.093781,114.398453 
	C148.493652,114.426788 148.954102,114.684738 149.672424,115.056961 
z"/>
<path fill="#FD976E" opacity="1.000000" stroke="none" 
	d="
M146.959991,113.659836 
	C146.539261,113.731468 145.977280,113.513100 145.190247,113.084305 
	C145.583054,113.039192 146.200897,113.204514 146.959991,113.659836 
z"/>
<path fill="#FE8E63" opacity="1.000000" stroke="none" 
	d="
M81.712753,92.144981 
	C81.635384,92.536407 81.317207,92.898865 80.742455,93.219795 
	C80.814568,92.824188 81.143265,92.470100 81.712753,92.144981 
z"/>
<path fill="#FE8E63" opacity="1.000000" stroke="none" 
	d="
M83.722275,113.971252 
	C83.756027,114.132408 83.484200,114.348160 82.992165,114.709641 
	C82.986870,114.578873 83.201782,114.302361 83.722275,113.971252 
z"/>
<path fill="#FE8E63" opacity="1.000000" stroke="none" 
	d="
M80.030701,93.659271 
	C80.122147,93.617569 80.311256,93.904800 80.311256,93.904800 
	C80.311256,93.904800 80.129066,94.029625 80.030106,93.965729 
	C79.931152,93.901840 79.939247,93.700981 80.030701,93.659271 
z"/>
</svg>